<?xml version="1.0" encoding="UTF-8" standalone="no"?>
<!-- Created with Inkscape (http://www.inkscape.org/) -->

<svg
   width="150mm"
   height="150mm"
   viewBox="0 0 150 150"
   version="1.1"
   id="svg5"
   inkscape:version="1.2.1 (9c6d41e410, 2022-07-14)"
   sodipodi:docname="chut.svg"
   xml:space="preserve"
   xmlns:inkscape="http://www.inkscape.org/namespaces/inkscape"
   xmlns:sodipodi="http://sodipodi.sourceforge.net/DTD/sodipodi-0.dtd"
   xmlns="http://www.w3.org/2000/svg"
   xmlns:svg="http://www.w3.org/2000/svg"><sodipodi:namedview
     id="namedview7"
     pagecolor="#ffffff"
     bordercolor="#666666"
     borderopacity="1.0"
     inkscape:showpageshadow="2"
     inkscape:pageopacity="0.0"
     inkscape:pagecheckerboard="0"
     inkscape:deskcolor="#d1d1d1"
     inkscape:document-units="mm"
     showgrid="false"
     inkscape:zoom="0.84096521"
     inkscape:cx="387.05525"
     inkscape:cy="307.38489"
     inkscape:window-width="1920"
     inkscape:window-height="992"
     inkscape:window-x="-8"
     inkscape:window-y="-8"
     inkscape:window-maximized="1"
     inkscape:current-layer="layer1" /><defs
     id="defs2" /><g
     inkscape:label="Layer 1"
     inkscape:groupmode="layer"
     id="layer1"><path
       style="fill:#000000;stroke-width:1"
       d="m 73.084004,146.09922 c -0.387671,0 -2.30606,-1.52099 -4.263101,-3.37997 -1.957024,-1.85899 -4.60582,-4.77243 -5.886234,-6.47429 -1.280397,-1.70186 -3.013475,-4.47155 -3.851281,-6.15487 -1.334551,-2.68138 -1.523439,-3.52727 -1.524596,-6.8274 -9.43e-4,-2.77429 0.230015,-4.20109 0.876567,-5.41486 0.482827,-0.90639 1.822005,-2.7621 2.975924,-4.12379 1.153938,-1.36169 3.693661,-4.01026 5.643815,-5.8857 l 3.545757,-3.4099 -0.405877,-24.013672 C 69.971744,67.207254 69.7938,55.0201 69.799548,53.332207 c 0.0089,-2.358327 0.258525,-3.470283 1.081917,-4.802538 0.589301,-0.953517 1.805472,-2.187306 2.702593,-2.741744 0.989465,-0.611547 2.454052,-1.020538 3.723077,-1.039722 1.150574,-0.0178 2.432769,0.25121 2.849323,0.596918 0.416536,0.345708 1.067875,1.229055 1.447413,1.962986 0.379539,0.733948 1.002688,4.351441 1.384772,8.038855 0.382101,3.687432 1.315455,11.36588 2.074122,17.063244 0.758685,5.697363 1.619093,12.371753 1.912018,14.831981 0.292942,2.460209 0.629645,4.955389 0.748238,5.544815 l 0.215636,1.071666 1.047374,-1.214035 c 0.578731,-0.670826 1.890111,-1.405486 2.930812,-1.641908 1.175364,-0.267013 2.539171,-0.253097 3.627725,0.03702 0.959355,0.255695 2.374646,0.995302 3.145059,1.643563 0.800239,0.67337 1.706743,2.131532 2.114523,3.401323 0.39256,1.22247 0.77831,2.731031 0.85722,3.352384 0.13578,1.069845 0.32385,1.132225 3.54846,1.177135 3.15933,0.044 3.51155,0.15394 4.88171,1.52449 0.98596,0.98619 1.67202,2.31624 2.06445,4.00228 0.41005,1.76189 0.78472,2.46554 1.23941,2.32778 0.35843,-0.10856 1.44047,-0.28921 2.40452,-0.40138 1.18259,-0.13756 2.44856,0.13294 3.89125,0.83124 1.51902,0.73536 2.51146,1.66985 3.42655,3.22651 l 1.28821,2.19137 0.147,12.17894 c 0.13525,11.19436 0.0687,12.43685 -0.82202,15.3694 -0.57583,1.89584 -1.2904,3.31377 -1.76093,3.49435 -0.43553,0.1671 -1.08519,0.0107 -1.44371,-0.34801 -0.55524,-0.55522 -0.50796,-1.07901 0.31901,-3.53386 0.87821,-2.60687 0.97089,-4.00946 0.97089,-14.69165 0,-9.7411 -0.12778,-12.05662 -0.72915,-13.21967 -0.40103,-0.77551 -1.40748,-1.82361 -2.23657,-2.32913 -0.82909,-0.50553 -2.15611,-0.91993 -2.94893,-0.92089 -0.80187,-9.5e-4 -1.89874,0.42422 -2.47199,0.95828 -0.56677,0.52803 -1.0305,1.24369 -1.0305,1.59036 0,0.34665 -0.26545,0.8506 -0.58989,1.11985 -0.41163,0.34162 -0.81579,0.32347 -1.33724,-0.06 -0.52367,-0.38516 -0.83133,-1.66654 -1.02805,-4.28168 -0.19563,-2.6006 -0.55376,-4.09947 -1.18132,-4.944 -0.57355,-0.77184 -1.45151,-1.26643 -2.41764,-1.36199 -0.83628,-0.0828 -2.03035,0.18629 -2.66088,0.59944 -0.6291,0.4122 -1.14381,1.05494 -1.14381,1.42832 0,0.37336 -0.38223,0.88342 -0.84938,1.13342 -0.46715,0.25002 -1.07063,0.31045 -1.34108,0.13436 -0.27043,-0.17618 -0.62388,-2.07732 -0.785415,-4.22482 -0.16764,-2.22906 -0.684493,-4.787924 -1.204354,-5.963146 -0.500837,-1.132244 -1.340388,-2.288619 -1.865659,-2.569745 -0.525271,-0.281108 -1.663441,-0.511123 -2.529241,-0.511123 -0.8658,0 -2.023154,0.314476 -2.571916,0.698837 -0.58923,0.41271 -1.227809,1.657942 -1.559689,3.041396 -0.309084,1.288405 -0.489946,3.226631 -0.401891,4.307201 0.119768,1.47058 -0.04485,2.09503 -0.655093,2.48318 -0.622937,0.39625 -0.982419,0.35128 -1.524418,-0.1907 -0.457913,-0.45792 -1.036252,-3.12483 -1.632049,-7.525721 C 84.612487,92.428605 83.753147,85.459974 83.210418,80.6918 82.667671,75.923627 81.811624,68.401696 81.308082,63.9764 80.80454,59.551105 80.388733,54.976909 80.384053,53.811547 c -0.0053,-1.165363 -0.227186,-2.906271 -0.494466,-3.868686 -0.267298,-0.962398 -0.818142,-2.081988 -1.224143,-2.487972 -0.45398,-0.453979 -1.126905,-0.626424 -1.747955,-0.447929 -0.5554,0.159632 -1.539527,0.662604 -2.18695,1.117758 -0.647442,0.455136 -1.427358,1.338181 -1.733149,1.962327 -0.420629,0.858486 -0.455207,5.777856 -0.142013,20.204476 0.227702,10.488317 0.453125,25.016696 0.500926,32.285259 0.06567,9.98802 -0.06051,13.49112 -0.516782,14.34368 -0.573873,1.07229 -0.620463,1.08238 -0.942039,0.20382 -0.186077,-0.50835 -0.49516,-2.82427 -0.686842,-5.14647 l -0.34852,-4.22221 -4.328378,4.45763 c -2.50429,2.57907 -4.803,5.44244 -5.454606,6.79448 -0.699531,1.45146 -1.126247,3.18048 -1.126247,4.56346 0,1.67147 0.488522,3.20195 1.959356,6.13856 1.077663,2.15158 3.066346,5.37437 4.419316,7.16174 1.352969,1.78739 3.584338,4.46427 4.958592,5.94865 1.374271,1.48435 2.498667,2.82944 2.498667,2.98905 0,0.15964 -0.31718,0.29021 -0.704869,0.29021 z m 41.005636,-2.82514 c -0.3813,0 -0.83679,-0.23222 -1.01219,-0.51605 -0.17547,-0.28382 0.0224,-0.8574 0.43969,-1.27467 0.56784,-0.56784 0.89363,-0.62365 1.29538,-0.22188 0.29522,0.29518 0.40931,0.8688 0.25358,1.27466 -0.15572,0.40588 -0.59516,0.73794 -0.97646,0.73794 z m 0.84155,-6.68434 c -1.04595,0.10179 -1.55991,-0.0908 -1.78115,-0.66732 -0.17102,-0.4457 -0.11799,-1.00338 0.11799,-1.2393 0.23591,-0.23591 1.03743,-0.3594 1.78115,-0.2744 0.98679,0.11282 1.3522,0.40901 1.3522,1.09624 0,0.7101 -0.3616,0.9769 -1.47018,1.08478 z m -0.62942,-4.74742 c -1.95424,0.26213 -1.97629,0.24886 -1.82271,-1.09658 0.14112,-1.237 0.33939,-1.37522 2.16089,-1.50691 1.50872,-0.10909 2.0782,0.0445 2.2991,0.62021 0.16142,0.42088 0.0792,0.97959 -0.18273,1.24159 -0.26199,0.26199 -1.36654,0.59576 -2.45455,0.74169 z M 44.556557,115.95293 c -0.410041,0.007 -0.886799,-0.12973 -1.05944,-0.30242 -0.172622,-0.17263 -0.313906,-0.69491 -0.313906,-1.16058 0,-0.46567 0.3708,-1.04068 0.823997,-1.27782 0.453214,-0.23715 1.943392,-0.66764 3.311559,-0.95665 1.36815,-0.289 3.323715,-0.95207 4.345712,-1.47344 1.021996,-0.5214 2.198535,-1.6062 2.614555,-2.41067 0.510928,-0.98802 0.692164,-2.24717 0.558497,-3.87995 -0.108913,-1.32948 -0.48765,-3.95147 -0.841776,-5.826635 -0.531997,-2.816898 -0.538813,-3.918177 -0.03915,-6.337206 0.33261,-1.61032 0.926876,-3.572202 1.320598,-4.359753 0.393722,-0.78755 1.859466,-2.539562 3.25721,-3.893351 1.397745,-1.353788 2.541361,-2.853024 2.541361,-3.331633 0,-0.47861 -0.476741,-1.300934 -1.059423,-1.827415 -0.582681,-0.526481 -2.065883,-1.448499 -3.295987,-2.048959 -1.62146,-0.791483 -2.236566,-1.366245 -2.236566,-2.089854 0,-0.548975 0.847541,-1.825724 1.883419,-2.837239 1.323819,-1.292676 1.883419,-2.236583 1.883419,-3.176842 0,-1.031447 -0.898065,-2.285363 -3.922519,-5.47671 -2.157373,-2.276464 -4.39191,-5.108649 -4.965622,-6.293783 -0.573712,-1.185134 -1.351207,-2.272995 -1.727756,-2.417499 -0.376549,-0.144505 -0.684635,-0.649595 -0.684635,-1.122457 0,-0.473466 1.014131,-1.633116 2.257155,-2.581063 1.241442,-0.946737 3.572184,-3.090781 5.179425,-4.764561 1.607241,-1.673781 2.922251,-3.400345 2.922251,-3.836795 0,-0.43645 -0.641141,-1.392477 -1.424777,-2.124503 -0.783636,-0.732009 -3.69706,-2.542624 -6.474273,-4.023583 C 46.632673,34.640617 43.16723,32.512946 41.708907,31.393426 40.250585,30.273889 37.739585,27.920687 36.128892,26.164101 34.518216,24.407515 32.353137,21.54529 31.317616,19.8036 30.282094,18.061927 28.624347,14.546851 27.633725,11.992339 26.643103,9.4378274 25.687094,6.5721681 25.509257,5.6242032 25.311631,4.5708139 25.369558,3.900629 25.658211,3.900629 c 0.259717,0 0.618185,0.581578 0.796591,1.2923915 0.178406,0.7108313 1.444584,3.6490989 2.81373,6.5294935 1.369164,2.880412 3.417998,6.483562 4.552965,8.007018 1.134967,1.523457 2.80517,3.586902 3.711564,4.585461 0.90641,0.998559 2.942307,2.846938 4.524224,4.10751 1.581917,1.260571 5.501784,3.681363 8.710837,5.379506 3.484218,1.843752 6.54592,3.833058 7.600341,4.938234 1.065704,1.11701 1.765698,2.312448 1.765698,3.015432 0,0.64059 -0.225015,1.761195 -0.500054,2.490214 -0.275039,0.729037 -2.522923,3.280398 -4.995324,5.669691 l -4.495252,4.34418 1.232668,2.103415 c 0.677979,1.156856 2.628401,3.333751 4.334268,4.837508 1.705885,1.503756 3.637033,3.644774 4.291451,4.757798 0.915967,1.557821 1.126264,2.415506 0.913636,3.725854 -0.151979,0.936184 -0.896516,2.474037 -1.654668,3.417446 l -1.378418,1.715282 2.302981,1.056503 c 1.434049,0.657888 2.569478,1.571862 3.009275,2.42234 0.388472,0.751193 0.706293,1.810615 0.706293,2.354287 0,0.543672 -0.3012,1.560633 -0.669349,2.25995 -0.368131,0.699317 -1.729927,2.307697 -3.02618,3.574195 -1.946169,1.901482 -2.500251,2.832541 -3.179922,5.343434 -0.776339,2.868008 -0.778296,3.274419 -0.03435,7.155028 0.433799,2.26287 0.788707,5.22938 0.788707,6.59222 0,1.36287 -0.347648,3.21055 -0.772548,4.10597 -0.424901,0.89541 -1.485462,2.17178 -2.356797,2.83638 -0.871334,0.66462 -3.331171,1.7069 -5.466298,2.31622 -2.135128,0.60932 -4.217526,1.11303 -4.627567,1.11934 z M 77.637183,82.916585 c -1.103948,0.10909 -1.494022,-0.04467 -1.494022,-0.588554 0,-0.530645 0.470975,-0.73612 1.687234,-0.73612 1.138918,0 1.62445,0.191256 1.494022,0.588572 -0.106243,0.323712 -0.865533,0.654952 -1.687234,0.736102 z m -0.583376,-4.620679 c -0.988237,0 -1.910362,-0.183745 -2.049154,-0.408333 -0.13881,-0.224587 0.725798,-0.542426 1.92136,-0.706293 1.195545,-0.163902 2.779793,-0.297943 3.520558,-0.297943 0.740782,0 1.346865,0.1854 1.346865,0.411998 0,0.226599 -0.662141,0.544438 -1.471438,0.706294 -0.80928,0.161767 -2.279971,0.294277 -3.268191,0.294277 z"
       id="path456"
       sodipodi:nodetypes="cssssssscscsscsssssscsssssssssssssccsscsssssssssssssssssssssssssssscsssssssssscsssssssccsssssssssssssssssssssssssssssssssssssssssssssssssssssssssssssscssssscsssssssssssssssssssssssss" /><path
       style="fill:#000000;stroke-width:1"
       id="path432"
       d="" /></g></svg>
