<?xml version="1.0" encoding="UTF-8" standalone="no"?>
<!-- Created with Inkscape (http://www.inkscape.org/) -->

<svg
   width="100mm"
   height="100mm"
   viewBox="0 0 100 100"
   version="1.1"
   id="svg238"
   inkscape:version="1.2.1 (9c6d41e410, 2022-07-14)"
   sodipodi:docname="fermat3.svg"
   xml:space="preserve"
   xmlns:inkscape="http://www.inkscape.org/namespaces/inkscape"
   xmlns:sodipodi="http://sodipodi.sourceforge.net/DTD/sodipodi-0.dtd"
   xmlns="http://www.w3.org/2000/svg"
   xmlns:svg="http://www.w3.org/2000/svg"><sodipodi:namedview
     id="namedview240"
     pagecolor="#ffffff"
     bordercolor="#666666"
     borderopacity="1.0"
     inkscape:showpageshadow="2"
     inkscape:pageopacity="0.0"
     inkscape:pagecheckerboard="0"
     inkscape:deskcolor="#d1d1d1"
     inkscape:document-units="mm"
     showgrid="false"
     inkscape:zoom="1.6819304"
     inkscape:cx="144.77412"
     inkscape:cy="217.90438"
     inkscape:window-width="1920"
     inkscape:window-height="992"
     inkscape:window-x="-8"
     inkscape:window-y="-8"
     inkscape:window-maximized="1"
     inkscape:current-layer="layer1" /><defs
     id="defs235" /><g
     inkscape:label="Layer 1"
     inkscape:groupmode="layer"
     id="layer1"><g
       id="g620"
       transform="matrix(0.62950043,0,0,0.62950043,-177.44114,-43.637982)"
       style="stroke-width:1.58856"><path
         style="fill:#000000;stroke-width:1.58856"
         d="m 320.09993,223.29664 c 1.53196,-3.77574 -1.45431,-7.94934 -5.44345,-9.09757 0.0156,-5.3873 -3.8197,-6.58385 -4.7735,-4.37096 -0.98314,-2.8901 -1.43875,-4.65515 -4.24327,-6.6465 -2.80452,-1.99135 -5.47936,-6.45343 0.10633,-3.09689 5.58569,3.35654 8.98451,9.39128 13.18841,14.34176 2.7927,3.28866 9.19345,8.22398 7.98192,10.18917 -1.29647,-0.75624 -8.3484,2.45673 -6.81644,-1.31901 z m 13.01223,1.19062 c -0.3569,-2.28586 -4.19142,-9.5632 -0.36923,-4.67202 0.70434,1.44941 4.44925,6.47027 0.36923,4.67202 z m 16.41686,-0.65432 c -1.4008,-3.62974 -2.76512,-1.43163 -5.22902,-4.37612 -1.5539,6.34103 -4.43298,0.20032 -8.18022,-1.61055 1.76319,-5.14224 -3.11333,-9.17628 -4.76774,-14.92794 -3.19069,-4.87457 -7.72345,-9.84152 -13.36992,-11.3828 -2.44293,-0.66683 -4.98051,0.92427 -7.48435,1.30284 -2.53515,0.3833 -5.21031,1.83035 -7.62918,0.98009 -1.96599,-0.69106 -4.98514,-2.52021 -4.33852,-4.50126 1.28335,-3.93175 7.42267,-1.86254 12.22291,-2.13341 3.12877,-0.17655 12.76326,2.94393 15.62019,5.14227 4.22659,3.25227 8.32055,11.34169 9.79802,14.46857 2.88517,6.10612 1.92067,4.26172 5.26717,11.19873 5.65781,-1.64067 10.68791,-5.84704 16.46379,-2.28395 5.47211,-0.34167 -0.3424,2.56415 -2.88438,0.88663 -1.8222,0.7376 -6.95337,-4.48876 -3.71167,0.66362 2.40154,3.61487 7.18839,10.6123 -1.77708,6.57328 z m 13.77325,0.44123 c -6.53806,-2.57736 1.32232,-5.33106 3.12834,-0.6426 1.47293,1.62326 -2.91792,1.26176 -3.12834,0.6426 z m 7.2782,-0.11084 c -1.53353,-3.52164 -8.12885,-3.4481 -3.70272,-5.03995 -1.26903,-3.43204 -5.2663,-7.41546 -8.0799,-8.58509 1.82429,2.33385 -0.45116,6.82749 -2.32217,2.96872 4.20358,-3.00986 -8.8571,0.8497 -2.11215,-2.2482 8.3564,-6.08884 15.62288,-14.43095 26.15731,-16.77007 6.98024,-2.96331 14.18153,0.65743 19.66398,4.94084 4.72246,4.59882 10.98069,7.52339 15.0571,12.71545 2.39041,4.82069 6.03098,8.79424 9.82887,12.54063 -2.57546,0.0661 -5.19765,0.35677 -6.62561,-1.46841 -2.47962,-0.89037 -6.71108,-3.61325 -3.96619,-5.03519 2.74489,-1.42194 -6.6366,-3.49754 -2.31576,-4.69312 -3.70693,-1.90892 0.65811,-5.48049 -4.7949,-3.6624 0.73301,-3.09133 -7.67079,-4.65148 -4.64266,0.57402 3.02813,5.2255 4.16983,9.27987 4.63024,14.15282 -9.21434,-0.0562 -18.45506,0.34859 -27.64896,-0.15435 -2.28085,-5.79784 -5.95852,-10.95411 -10.8664,-14.8203 -4.16746,-2.0639 0.44362,7.02418 2.24647,8.8184 0.54938,3.61469 5.19729,6.77253 0.86654,6.27356 -4.33075,-0.49897 -1.24653,0.0891 -1.37309,-0.50736 z m 15.01638,-16.79358 c 2.6499,0.63432 4.60542,0.1852 4.03976,-1.20487 3.94488,1.72094 -1.39948,-7.11853 -3.05597,-8.60493 -3.21439,-2.80103 -5.94964,3.10587 -4.20825,5.81621 1.00558,2.08856 -1.69809,5.30999 3.22446,3.99359 z"
         id="path441"
         sodipodi:nodetypes="zsczsaszsssssssaaaassscccssssssssssssssszsszsssszscsssc" /></g><path
       id="rect14612-6"
       style="fill:#000000;fill-opacity:1;stroke:none;stroke-width:1.25;paint-order:markers fill stroke"
       d="m 12.714642,65.610335 c 0,0 -5.3488152,-5.514162 -2.461344,-8.733977 -1.4193212,-3.556616 3.316324,-4.095901 2.735007,-8.05177 5.737939,-0.629877 1.92112,-8.9495 7.462334,-10.330872 3.656378,-3.881209 5.328932,-9.294012 4.873757,-14.512635 0.732402,-4.608038 3.13171,-8.721079 5.647839,-12.561993 2.557145,-3.3310247 5.628437,-6.2496762 9.709631,-7.6477548 4.634804,-2.701172 10.315064,-2.514978 15.519364,-2.099192 2.24863,0.179637 2.10924,0.227742 6.47146,1.9597349 -2.34896,-0.2702295 -2.99698,-0.679801 -3.03368,0.3258597 -0.0742,2.0325292 3.94087,0.5101054 6.06737,1.0942729 2.77805,0.8635282 5.39301,5.7581433 7.86307,8.3870603 4.7545,5.06027 3.39025,12.768948 7.81253,17.947247 0.29651,0.727017 3.18026,1.365248 1.16418,3.687893 1.20139,-0.146907 0.69066,3.34942 3.2538,4.61408 1.29322,1.426239 1.98815,7.504052 -1.03307,3.984285 -1.82683,-3.223833 1.51023,3.626343 2.35741,4.517459 3.11354,3.420134 0.40209,7.505309 -0.93703,10.92424 -2.23736,4.621483 -7.58412,6.508347 -10.18284,10.779896 -1.47687,2.011872 1.02973,7.959035 -2.12569,4.059985 -2.20217,-0.860341 -3.46072,-3.94067 -5.46834,-5.618217 -0.78643,-0.657139 -3.28273,-1.543182 -2.55155,-1.721166 2.1481,-0.522899 -1.35055,-2.311325 -1.97561,-2.435357 -5.07554,-1.007147 0.41651,5.687541 -1.68309,6.602062 -2.26356,0.98594 -2.38474,-6.496721 -6.53164,-3.482292 -3.149,2.289048 -7.52901,0.969305 -10.42381,0.471935 1.62434,-0.783784 -2.22478,0.882486 -1.04715,-1.437286 -2.45559,0.09441 0.32199,1.313467 -2.515823,1.492362 -1.519143,-0.275018 -6.886094,4.025015 -3.284038,0.747209 1.861105,-1.677234 -4.974767,1.661816 -1.693066,1.773944 0.748998,3.091123 -3.376914,2.819742 -3.376914,2.819742 -0.61056,0.244628 -7.019291,2.11807 -8.228699,1.158699 -2.553521,1.933129 -0.396085,-1.063167 -3.105281,-0.604947 -0.920946,-1.736702 -1.351803,-0.711404 -1.351803,-0.711404 z M 53.91355,3.8125752 c -1.60095,1.5593449 4.2161,5.341179 -0.88819,6.3342448 -2.73548,1.252821 -4.67684,3.914252 -7.10427,6.984647 -1.33971,2.360063 -3.41468,5.930981 -2.48888,7.481623 -1.16186,4.828258 6.33453,-1.507726 8.87706,0.750025 5.20491,0.906207 4.64288,6.421265 5.5848,10.182417 2.97374,3.349348 -3.76554,3.247104 -1.3042,0.438416 -3.13213,1.331668 1.17051,-3.327063 -0.90956,-1.333191 -0.19224,-2.072165 -3.99361,-7.499025 -4.49229,-4.977339 2.56552,-0.04098 2.80373,4.392704 0.87874,1.712423 -2.03332,-2.728857 -2.44658,4.527711 -4.88067,0.874863 -1.1811,0.823997 3.62179,1.986988 0.17451,2.106703 4.52231,2.489557 -2.8777,0.791223 -3.33648,-1.382142 -2.82012,0.659808 0.06268,6.331296 1.042257,7.581513 2.321731,3.18216 3.715216,3.894189 1.875234,4.940369 0.62959,0.08724 1.095159,3.640907 2.26125,5.574442 1.16609,1.933536 -2.029454,2.621717 1.170062,4.69149 6.075765,3.930424 3.317327,5.323463 8.558608,5.217464 2.196494,0.666184 5.29984,-0.454691 7.682359,-6.861596 -2.1756,-4.304517 -7.36922,-3.74995 -11.35182,-2.547089 -2.0013,0.779943 -5.16919,-0.544301 -1.85468,-1.926831 3.6398,2.427971 10.41289,-3.130086 12.14036,2.534007 3.68358,1.748189 4.23762,-3.101803 4.99756,-6.077921 0.83222,-3.259187 0.98009,-8.810987 1.09098,-10.636615 0.1109,-1.825624 0.14019,-6.980963 -2.76662,-3.409879 -2.16154,1.882684 0.31329,-3.513419 -1.71415,-0.682357 -0.63529,3.151593 -4.53453,0.290213 -4.71366,-0.873178 -1.69096,-0.864803 3.469223,-3.574283 5.7867,-2.175475 5.009095,3.023446 1.371507,0.474137 2.24266,-2.420222 0.641722,-2.132085 -0.5794,-4.043552 -0.0346,-5.454859 C 68.45979,15.159814 64.03777,11.444466 58.78847,9.4580531 57.86496,7.0293649 54.67274,6.3668364 53.91352,3.8125356 Z M 30.94388,33.298969 c -2.789858,2.058987 -4.174198,4.572096 -7.120797,3.352556 0.924742,1.382866 1.713775,0.933655 2.977495,0.748534 -2.928195,2.768482 4.007636,-1.871231 0.252726,1.536247 -1.004403,0.858382 -3.703052,-1.496914 -2.777738,0.635718 2.242202,-0.583394 -0.848437,4.515119 -2.769961,1.908594 -1.197652,-0.670234 -2.794116,-2.20607 -1.913539,0.513551 -1.998459,2.747804 1.736922,1.622188 -0.008,0.466974 2.422641,-0.915385 2.486605,0.56315 1.370346,1.173825 1.41141,1.91311 2.389827,-1.718818 1.435748,1.654439 0.782827,-2.161084 4.220717,-1.426096 3.280754,-2.670851 0.0353,-2.737617 5.30001,-2.431136 3.654825,0.146691 1.029232,-0.645501 4.627553,-4.015974 2.817365,-6.127793 -0.526302,0.9305 -2.206459,2.347838 -0.05568,1.34126 0.07803,3.154502 -6.89176,0.709927 -1.44656,0.565851 0.278129,-1.896018 -1.578379,-3.247875 0.302987,-5.245593 z m 25.05354,6.704075 c 3.0197,0.44192 1.71525,3.023993 -0.0565,0.640385 -2.11976,1.767646 4.14905,3.250092 5.5111,4.263318 0.63504,-1.923095 3.98821,-2.741175 2.86966,0.179709 -1.45773,-2.022109 -3.84871,2.560565 -5.23282,1.178143 0.16851,2.596551 -3.47534,2.554689 -3.043,0.03802 -3.44633,-0.878781 -3.11208,-5.697054 -0.0484,-6.299592 z m 16.30765,4.170644 c -0.67416,2.744326 -0.16418,3.313648 -1.06221,5.670557 0.64059,-1.937692 2.00396,-2.460291 0.97454,0.679984 -3.15948,-0.384896 -2.17449,7.077183 -5.75241,7.771664 -0.51525,1.189475 -3.60863,3.144633 -2.12363,2.810283 -0.39417,3.262161 0.95072,-0.924804 1.27716,1.821959 1.07518,0.532757 2.77485,3.383777 1.42919,-0.309873 -2.1368,-3.194336 3.47832,-3.610158 2.36804,-0.687654 0.22933,-0.54725 -0.90586,-2.291906 -1.36079,0.150328 0.83164,4.245451 4.27468,-2.417105 1.53605,-2.487509 -1.94751,-2.561632 1.54029,-0.916807 3.27702,-0.37575 -1.70973,-1.137845 -3.3533,-1.866975 -0.98127,-1.800924 -0.31369,-1.796769 -0.0769,-1.942171 1.06683,-1.560955 0.57139,-1.490882 -2.98911,-0.367001 -0.45426,-2.42535 -1.52627,-1.03528 -0.65014,-1.277024 0.44497,-1.135605 -0.69669,-3.337671 2.23926,-4.942165 -0.35456,-7.25166 l 0.25324,-0.555049 -0.5379,-0.314446 z m -53.879499,6.61393 c -1.330384,2.156935 0.386601,7.245557 1.811324,10.196906 -1.751101,-1.352829 0.353067,-6.525227 0.03421,-2.442806 -0.132004,1.55767 1.845459,5.424318 2.440238,3.066372 2.535181,2.403735 -0.641208,-1.313528 -0.80025,-1.522341 1.472044,-4.366301 1.72389,2.980928 3.090028,0.617376 0.182993,1.81856 2.157068,5.489037 1.381174,1.484271 0.505506,-1.706046 0.09648,-3.09939 -0.406658,-2.057247 1.250312,-1.835113 -0.316672,-1.981587 1.564643,-2.451132 -1.72493,-0.003 -0.764404,-2.596496 -1.787125,0.21604 -2.331759,3.143657 1.648705,-6.674978 -0.756321,-2.239891 -0.525727,1.892669 -0.628837,-1.185168 -1.185755,-0.856572 0.834814,-4.851082 -2.201691,2.467853 -1.291202,4.081153 -1.95429,1.500712 -1.504595,-1.119311 -1.125976,-0.698545 0.840215,-2.480524 -0.322167,-5.006426 -0.828248,-6.582723 0.32668,2.079417 -0.218006,5.706891 -0.46418,1.25048 -0.657673,1.486533 -0.530892,4.692099 -1.514339,0.931012 0.372421,-1.434874 0.565685,-1.071416 0.08232,-2.446439 1.674887,1.407793 0.463933,-0.708124 -0.243991,-0.545914 z m 8.59505,7.943296 0.353576,0.06139 z"
       sodipodi:nodetypes="cccccccacacsccccccccassasccccccccccccccccccccccccczscccccszcccssccccccccccccccccccccccccccccccccccccccccccccccccccccccccccccccccccccccc" /></g></svg>
