<?xml version="1.0" encoding="UTF-8" standalone="no"?>
<!-- Created with Inkscape (http://www.inkscape.org/) -->

<svg
   width="200mm"
   height="150mm"
   viewBox="0 0 200 150"
   version="1.1"
   id="svg463"
   inkscape:version="1.2.1 (9c6d41e410, 2022-07-14)"
   sodipodi:docname="haut-parleur.svg"
   xmlns:inkscape="http://www.inkscape.org/namespaces/inkscape"
   xmlns:sodipodi="http://sodipodi.sourceforge.net/DTD/sodipodi-0.dtd"
   xmlns="http://www.w3.org/2000/svg"
   xmlns:svg="http://www.w3.org/2000/svg">
  <sodipodi:namedview
     id="namedview465"
     pagecolor="#ffffff"
     bordercolor="#666666"
     borderopacity="1.0"
     inkscape:showpageshadow="2"
     inkscape:pageopacity="0.0"
     inkscape:pagecheckerboard="0"
     inkscape:deskcolor="#d1d1d1"
     inkscape:document-units="mm"
     showgrid="false"
     inkscape:zoom="0.2102413"
     inkscape:cx="107.01989"
     inkscape:cy="563.63806"
     inkscape:window-width="1920"
     inkscape:window-height="992"
     inkscape:window-x="-8"
     inkscape:window-y="-8"
     inkscape:window-maximized="1"
     inkscape:current-layer="layer1" />
  <defs
     id="defs460" />
  <g
     inkscape:label="Layer 1"
     inkscape:groupmode="layer"
     id="layer1">
    <path
       style="fill:#000000;stroke-width:1"
       d="m 71.020989,139.61749 c -3.89814,-0.007 -4.85541,-0.0896 -6.05462,-0.5209 -0.78342,-0.2818 -1.73592,-0.7084 -2.11666,-0.94801 -0.38074,-0.23961 -1.2557,-1.04571 -1.94435,-1.79134 -0.68865,-0.74562 -1.60289,-2.0709 -2.03165,-2.94505 -0.42875,-0.87415 -1.19969,-3.01812 -1.71318,-4.76437 -0.5135,-1.74625 -1.17121,-4.24656 -1.46157,-5.55625 -0.29037,-1.30969 -0.9508,-3.92906 -1.46763,-5.82083 -0.51683,-1.89178 -1.20077,-4.09443 -1.51987,-4.8948 -0.3191,-0.80036 -0.92798,-2.05051 -1.35307,-2.77811 -0.42509,-0.72761 -1.18872,-1.91823 -1.69695,-2.64584 -0.50823,-0.7276 -1.4399,-1.71859 -2.07037,-2.20219 -0.63047,-0.4836 -1.97814,-1.22877 -2.99482,-1.65594 -1.47943,-0.62159 -2.36728,-0.80316 -4.44678,-0.90941 -1.42905,-0.073 -2.26212,-0.18785 -3.39202,-0.29459 -2.50338,-0.23649 -5.01014,-0.44888 -7.50456,-0.76622 -1.76142,-0.22408 -3.91749,-0.464 -5.26597,-0.80303 -1.34847,-0.339037 -3.06799,-0.950207 -3.82115,-1.358157 -0.75316,-0.40796 -1.82833,-1.21799 -2.38925,-1.80007 -0.56093,-0.58208 -1.37149,-1.76196 -1.80124,-2.62195 -0.78002,-1.56092 -1.23068,-4.1235 -1.27471,-6.24891 -0.0452,-2.18306 0.56018,-5.17857 1.04229,-6.46713 0.30193,-0.80697 0.86445,-2.03183 1.25006,-2.7219 0.3856,-0.69009 1.18226,-1.73095 1.77034,-2.31303 0.58808,-0.58208 2.37704,-1.79372 3.97547,-2.69254 1.59842,-0.89881 4.18785,-2.2564 5.75428,-3.01687 1.56643,-0.76047 2.9179,-1.31282 3.00328,-1.22745 0.0854,0.0854 -0.14971,0.55503 -0.52242,1.04367 -0.3727,0.48864 -0.97565,1.53937 -1.33988,2.33495 -0.36423,0.79558 -0.86573,2.33837 -1.11444,3.42842 -0.33204,1.45526 -0.45625,3.24742 -0.46741,6.74441 -0.012,3.74045 0.09,5.21674 0.47512,6.87916 0.26969,1.16417 0.77484,2.76005 1.12255,3.54641 0.34771,0.78635 0.68534,1.37659 0.75028,1.31165 0.0649,-0.0649 -0.05,-0.76786 -0.25542,-1.56203 -0.20542,-0.79417 -0.56082,-2.63457 -0.78976,-4.08978 -0.34302,-2.18027 -0.37294,-3.46057 -0.17004,-7.27604 0.1807,-3.39794 0.39135,-5.08791 0.79151,-6.35 0.29991,-0.94589 1.14535,-2.63315 1.87876,-3.74948 0.7334,-1.11633 2.07692,-2.70492 2.9856,-3.5302 1.10514,-1.00372 2.52812,-1.92018 4.29796,-2.76808 1.45521,-0.69717 5.92005,-2.57811 9.92188,-4.179861 4.00182,-1.601753 8.51074,-3.467213 10.01983,-4.145465 1.50908,-0.678249 3.94986,-1.836478 5.42395,-2.57384 1.4741,-0.737362 3.93033,-2.061353 5.4583,-2.942201 1.52797,-0.880848 4.80219,-2.937894 7.27604,-4.571215 2.47386,-1.633318 6.16479,-4.21192 8.20208,-5.730226 2.0373,-1.518307 4.81812,-3.669509 6.17962,-4.780453 1.3615,-1.110941 3.95972,-3.357494 5.77382,-4.992338 1.8141,-1.634844 3.748601,-3.514467 4.298871,-4.176939 0.55028,-0.662473 1.11742,-1.442621 1.26032,-1.733662 0.14289,-0.291042 0.53356,-1.481667 0.86815,-2.645834 0.33459,-1.164166 0.93928,-2.777692 1.34374,-3.58561 0.40447,-0.807919 1.21224,-2.0722 1.79506,-2.809515 0.58281,-0.737314 1.51574,-1.623329 2.07317,-1.968922 0.89806,-0.556777 1.32995,-0.628546 3.79163,-0.630069 2.52624,-0.0016 2.91006,0.06576 4.23333,0.742489 0.80037,0.409314 2.14904,1.421345 2.99705,2.248958 0.84801,0.827613 2.38009,2.752484 3.40461,4.277491 1.02452,1.525006 2.67702,4.442038 3.67222,6.482292 0.9952,2.040254 2.45666,5.376428 3.24769,7.41372 0.79104,2.037292 2.04287,5.591151 2.78184,7.897469 0.73898,2.306314 1.8871,6.381861 2.55139,9.056769 0.6643,2.674909 1.55665,6.932928 1.98301,9.462265 0.42636,2.529337 0.95827,6.311917 1.18202,8.405727 0.22375,2.09382 0.48216,6.18819 0.57425,9.0986 0.10434,3.29749 0.0467,6.88702 -0.15285,9.52501 -0.17616,2.32833 -0.55073,5.60255 -0.83237,7.27604 -0.28164,1.67349 -0.76594,3.935677 -1.07622,5.027077 -0.31028,1.09142 -1.06393,3.05595 -1.67478,4.36564 -0.65259,1.39917 -1.55396,2.83418 -2.18555,3.47947 -0.5912,0.60402 -1.61042,1.41204 -2.26492,1.7956 -0.86736,0.5083 -1.57376,0.70164 -2.60546,0.71311 -0.8127,0.009 -2.00709,-0.20964 -2.80475,-0.51349 -0.76411,-0.29108 -2.36558,-1.1555 -3.55884,-1.92094 -1.19326,-0.76544 -3.36656,-1.95634 -4.82956,-2.64643 -1.463,-0.6901 -4.32637,-1.7326 -6.36304,-2.31667 -2.03667,-0.58407 -4.47694,-1.25071 -5.42282,-1.48141 -0.94589,-0.23071 -3.35845,-0.7104 -5.36126,-1.06599 -2.002811,-0.35557 -3.729211,-0.70014 -3.836461,-0.76571 -0.10724,-0.0656 -2.33811,-0.42208 -4.95749,-0.79226 -2.61937,-0.370187 -6.01266,-0.809307 -7.54062,-0.975827 -1.52797,-0.16652 -3.73063,-0.40841 -4.8948,-0.53754 -1.16416,-0.12913 -4.30027,-0.25348 -6.96914,-0.27634 -4.651,-0.0398 -4.8762,-0.0178 -5.42395,0.53101 -0.51054,0.5115 -0.56682,0.83269 -0.52774,3.011527 0.0366,2.03927 0.21741,2.98504 1.10343,5.77109 0.58283,1.83266 1.18363,4.00258 1.33511,4.82204 0.15149,0.81947 0.45014,1.8278 0.66367,2.24072 0.21353,0.41292 0.93427,1.35808 1.60164,2.10036 0.66737,0.74227 1.39022,1.77279 1.60634,2.29003 0.21611,0.51724 0.39294,1.68007 0.39294,2.58406 0,1.57029 0.0704,1.7478 1.57765,3.97854 0.86771,1.28421 1.6965,2.78083 1.84177,3.32581 0.15626,0.58623 0.17303,1.36908 0.0411,1.91694 -0.12268,0.50932 -0.35617,1.26121 -0.51886,1.67087 -0.16268,0.40965 -0.29579,1.00898 -0.29579,1.33184 0,0.32285 0.41672,1.23382 0.92605,2.02437 0.50932,0.79055 0.92604,1.71102 0.92604,2.04549 0,0.40215 -0.29125,0.7857 -0.8599,1.13241 -0.77241,0.47095 -1.33096,0.52342 -5.4901,0.51573 z m 43.810961,-38.89868 c 0.15784,0.009 -0.34711,-1.264457 -1.12212,-2.828797 -0.77502,-1.56435 -1.90297,-3.96771 -2.50657,-5.3408 -0.6036,-1.37309 -1.56132,-3.75434 -2.12828,-5.29167 -0.56695,-1.53733 -1.61276,-4.58108 -2.32403,-6.76389 -0.71127,-2.18281 -1.47669,-4.68313 -1.70093,-5.55625 -0.22425,-0.87313 -0.82422,-3.43297 -1.33327,-5.68854 -0.50906,-2.25558 -1.1116,-5.23214 -1.33898,-6.614588 -0.22738,-1.382448 -0.59938,-4.120885 -0.82667,-6.085417 -0.22729,-1.964531 -0.49776,-4.583906 -0.60104,-5.820833 -0.10328,-1.236927 -0.0995,-4.570677 0.008,-7.408333 0.10796,-2.837657 0.27328,-5.770619 0.36738,-6.517694 0.11094,-0.880887 0.0684,-1.421748 -0.12091,-1.538777 -0.16512,-0.10205 -1.641511,1.066138 -3.397921,2.688604 -1.70826,1.577983 -3.93937,3.531436 -4.95801,4.341008 -1.01865,0.809572 -3.10224,2.304651 -4.63021,3.322397 -1.52797,1.017749 -3.61156,2.385682 -4.63021,3.039853 -1.01864,0.654169 -4.65005,2.893465 -8.06979,4.976212 -3.41974,2.082747 -7.35026,4.594178 -8.73449,5.580955 -1.38424,0.986779 -3.30142,2.6069 -4.2604,3.600272 -0.95899,0.993371 -1.98619,2.282381 -2.28267,2.864461 -0.29649,0.58208 -0.73506,1.71318 -0.9746,2.51354 -0.23955,0.80037 -0.50267,2.7649 -0.58472,4.36563 -0.10289,2.00727 -0.0204,3.74955 0.26592,5.61455 0.2283,1.48727 0.80845,3.74946 1.28922,5.02708 0.48077,1.27762 1.32582,3.0021 1.87789,3.83217 0.55208,0.83006 1.68602,2.13975 2.51988,2.91041 0.83387,0.77067 2.16537,1.71483 2.9589,2.09814 0.79353,0.38331 2.05711,0.82623 2.80796,0.98427 0.75086,0.15804 4.38226,0.47071 8.06979,0.69484 3.68754,0.22412 8.55008,0.5907 10.80565,0.81462 2.25558,0.22392 6.12511,0.81557 8.59896,1.31476 2.473861,0.4992 6.343391,1.43882 8.598961,2.08805 2.25557,0.64923 4.99401,1.53769 6.08542,1.97436 1.0914,0.436657 2.11352,0.800897 2.27137,0.809407 z M 26.424139,96.765533 c 0.22629,0 0.41144,-0.0551 0.41144,-0.1225 0,-0.0674 -0.24638,-0.74756 -0.54751,-1.51152 -0.30112,-0.76397 -0.77237,-2.34595 -1.04721,-3.51553 -0.29631,-1.26096 -0.62394,-4.22417 -0.80494,-7.28017 -0.16788,-2.83452 -0.426,-5.45389 -0.57361,-5.82083 0,0 -0.029,-0.6794 -0.26838,-0.66717 -0.23353,0.0119 -0.19407,0.67411 -0.19407,0.67411 -0.10674,0.37076 -0.27659,2.09717 -0.37744,3.83646 -0.11027,1.90162 -0.0698,3.95347 0.10147,5.14673 0.15666,1.09141 0.58863,2.98359 0.95992,4.20485 0.3713,1.22126 0.95719,2.85837 1.30199,3.63802 0.37024,0.83718 0.79535,1.41755 1.03834,1.41755 z m -4.97361,-1.67051 c 0.0709,-0.0709 -0.26604,-1.42069 -0.74875,-2.99952 -0.85278,-2.7892 -0.87578,-2.98732 -0.81137,-6.98702 0.0521,-3.23837 -0.0146,-4.226 -0.31292,-4.6302 -0.31163,-0.42224 -0.44131,-0.45251 -0.72775,-0.16984 -0.25983,0.25642 -0.34854,1.43484 -0.34854,4.63021 0,0 -0.28124,2.88545 0,4.28625 0.16675,0.83051 0.9809,2.34432 0.9809,2.34432 0.5395,1.28938 1.17409,2.63916 1.4102,2.99952 0.23612,0.36036 0.48732,0.59719 0.55823,0.52628 z m 93.761201,-3.25607 c 0.14171,-0.14171 0.55915,-2.15706 0.92764,-4.47856 0.44068,-2.77625 0.67162,-5.30759 0.67475,-7.39591 0.003,-1.74625 -0.0582,-4.30609 -0.13509,-5.68854 -0.0769,-1.38245 -0.27086,-3.16839 -0.431,-3.96875 -0.16014,-0.80036 -0.70855,-2.94349 -1.21869,-4.7625 -0.56464,-2.01337 -1.57346,-4.652971 -2.57856,-6.746876 -0.90807,-1.891771 -2.22547,-4.153959 -2.92755,-5.027084 -0.70208,-0.873125 -1.82394,-2.093002 -2.49302,-2.710836 -0.66908,-0.617836 -1.30353,-1.123852 -1.40989,-1.124479 -0.10635,-5.29e-4 -0.12414,0.564404 -0.0395,1.255628 0.0846,0.691224 0.49982,3.638021 0.92267,6.548438 0.42284,2.910416 1.18951,7.613389 1.70369,10.451039 0.51418,2.83766 1.4583,7.18344 2.09804,9.65729 0.63974,2.47386 1.65898,6.03957 2.26497,7.92381 0.60599,1.88423 1.39029,4.07818 1.74287,4.87543 0.41587,0.94035 0.73156,1.35904 0.8987,1.1919 z m 54.52884,15.623667 c -0.16201,0.10014 -0.29457,0.13328 -0.29457,0.0737 0,-0.0596 0.71277,-2.12049 1.58393,-4.57968 0.87117,-2.4592 1.9905,-6.138147 2.48741,-8.175437 0.49691,-2.03729 1.0886,-4.5376 1.31487,-5.55625 0.22626,-1.01864 0.55962,-3.2213 0.74079,-4.89479 0.18634,-1.72119 0.33503,-6.60509 0.34235,-11.2448 0.009,-6.00471 -0.11175,-9.42321 -0.45247,-12.760189 -0.25597,-2.506961 -0.65574,-5.423993 -0.88837,-6.482292 -0.23263,-1.058301 -0.52039,-2.402199 -0.63946,-2.986442 -0.11907,-0.584242 -0.58562,-2.524387 -1.03678,-4.31143 -0.45116,-1.787046 -1.00734,-3.74981 -1.23595,-4.361699 -0.22862,-0.611891 -0.65852,-1.767372 -0.95533,-2.567736 -0.29681,-0.800365 -1.2013,-3.003021 -2.00997,-4.894792 -0.80867,-1.891771 -1.92347,-4.195893 -2.47733,-5.120271 -0.55387,-0.924378 -1.00703,-1.725738 -1.00703,-1.7808 0,-0.05506 -0.43592,-0.787034 -0.96872,-1.626604 -0.5328,-0.839571 -1.77392,-2.598054 -2.75805,-3.907742 -0.98412,-1.309688 -2.50295,-3.164217 -3.99221,-4.511081 -2.26164,-2.045377 -5.40919,-3.913615 -7.42345,-5.345959 -1.01696,-0.721984 -0.97778,-0.950959 -0.79025,-1.47685 0.15941,-0.447008 0.91427,-0.639277 1.31445,-0.547055 0.40018,0.09222 1.8587,0.64025 3.24115,1.217833 1.38244,0.577584 3.62879,1.633806 4.99187,2.347161 1.36308,0.713355 3.48599,1.974424 4.71756,2.802377 1.23157,0.827953 3.22491,2.367117 4.42964,3.420364 1.20473,1.053246 2.94444,2.757175 3.86602,3.786507 0.92159,1.029333 2.41412,2.905753 3.31675,4.169824 0.90263,1.26407 2.35905,3.676675 3.2365,5.361344 0.87746,1.684668 2.07022,4.259688 2.65059,5.722265 0.58037,1.462577 1.412,3.903359 1.84807,5.423959 0.43607,1.5206 0.93652,3.41957 1.1121,4.219935 0.19376,0.883213 1.08727,6.891245 1.23902,10.368786 0.15024,3.442842 -0.002,6.902427 -0.32778,10.333157 -0.24495,2.58286 -0.60553,5.1665 -1.22001,7.68713 -0.49416,2.02711 -1.47878,4.30324 -1.97396,5.94003 -0.49517,1.63679 -1.36456,4.19664 -1.93195,5.68855 -0.5674,1.49191 -1.63618,4.00384 -2.37508,5.58207 -0.7389,1.57823 -1.96289,3.95948 -2.71998,5.29167 -0.75709,1.332177 -2.11526,3.567657 -3.01816,4.967697 -0.9029,1.40005 -1.77419,2.62746 -1.93621,2.72759 z m -12.23427,-7.19457 c -0.40634,0.4747 -0.74364,0.7831 -0.74956,0.68531 -0.006,-0.0978 0.35774,-1.228867 0.80811,-2.513537 0.45037,-1.28466 1.15552,-3.34886 1.56699,-4.58709 0.41148,-1.23824 1.04306,-3.73855 1.40353,-5.55625 0.36046,-1.8177 0.8554,-4.97179 1.09987,-7.00908 0.34288,-2.85746 0.41364,-5.03472 0.30954,-9.525 -0.10199,-4.39931 -0.29802,-6.85467 -0.80273,-10.054169 -0.36728,-2.328334 -1.02444,-5.721615 -1.46036,-7.540626 -0.43591,-1.81901 -1.08385,-4.140729 -1.43985,-5.159375 -0.35601,-1.018646 -1.18351,-3.173685 -1.8389,-4.788977 -0.65539,-1.615292 -1.62007,-3.71661 -2.14375,-4.669599 -0.52367,-0.952987 -1.2797,-2.348873 -1.68006,-3.101967 -0.40036,-0.753094 -1.45719,-2.283181 -2.34851,-3.400193 -0.89131,-1.117012 -2.14354,-2.566712 -2.78272,-3.221556 -4.00901,-3.317765 -3.4821,-2.90933 -6.16563,-4.786354 -1.0914,-0.76202 -0.8576,-1.409724 -0.41128,-1.862546 1.87354,-0.06516 3.81755,1.048022 5.60309,1.880516 1.84009,0.857923 3.85928,2.282596 5.19652,3.17706 1.33724,0.894464 3.45312,2.593496 4.70196,3.775627 1.24884,1.182131 3.2187,3.406684 4.37748,4.943452 1.39145,1.845347 2.7233,4.051911 3.92229,6.498288 0.99849,2.037292 2.06195,4.478073 2.36324,5.423959 0.3013,0.945885 0.72595,2.553229 0.94368,3.571875 0.21772,1.018646 0.54047,4.202488 0.71722,7.075204 0.25004,4.063821 0.2515,6.236671 0.007,9.789581 -0.1769,2.56594 -0.60517,5.98437 -0.9776,7.80304 -0.36454,1.78012 -1.13499,4.67458 -1.71212,6.43213 -0.57713,1.75756 -1.82534,4.80931 -2.7738,6.78167 -0.94846,1.97236 -2.46021,4.82123 -3.35945,6.33081 -0.89924,1.50958 -1.96743,3.13309 -2.37377,3.607797 z m -12.06286,-4.135237 c -0.32282,0.42076 -0.59071,0.6345 -0.59532,0.475 -0.005,-0.15951 0.36079,-1.2906 0.81199,-2.51354 0.45121,-1.22294 1.10652,-3.23557 1.45625,-4.47249 0.34973,-1.23693 0.705,-2.78474 0.78947,-3.43959 0.0845,-0.65484 0.26774,-1.71733 0.40726,-2.36108 0.13952,-0.64375 0.41089,-4.06447 0.52404,-6.10323 0.0783,-1.41018 0.12216,-2.82343 0.1069,-4.23569 -0.0191,-1.76572 -0.0285,-3.03609 -0.24805,-5.29167 -0.21956,-2.25557 -0.5894,-5.09963 -0.82188,-6.320126 -0.23247,-1.220497 -0.95934,-3.899403 -1.61526,-5.953125 -0.65592,-2.05372 -1.42215,-4.238758 -1.70272,-4.855634 -0.28057,-0.616879 -0.51013,-1.188622 -0.51013,-1.270542 0,-0.08192 -0.4858,-1.125017 -1.07956,-2.317988 -0.59376,-1.192972 -1.74665,-3.06201 -2.56198,-4.153416 -0.81533,-1.091407 -2.01538,-2.507374 -3.08885,-3.704167 -0.5926,-0.660678 -1.18346,-1.328496 -1.84811,-1.916639 -0.39288,-0.347664 -0.70506,-0.51614 -1.25747,-0.94648 -0.55242,-0.43034 -1.13177,-0.705828 -1.47497,-1.251759 -0.23228,-0.369507 -0.5833,-0.91096 -0.33072,-1.266908 0.1655,-0.233238 0.57259,-0.113778 0.85514,-0.06958 1.26137,0.197305 2.15523,0.76705 3.54029,1.46153 1.38506,0.69448 3.24441,1.821301 4.33582,2.538036 1.0914,0.716735 3.00184,2.318867 4.24542,3.560289 1.24357,1.241425 2.95821,3.309475 3.81029,4.595665 0.85209,1.286192 2.02146,3.429317 2.59861,4.7625 0.57714,1.333185 1.38141,3.73366 1.78727,5.334389 0.40586,1.600729 0.88496,4.339167 1.06468,6.085417 0.19689,1.913088 0.26128,4.489488 0.16202,6.482288 -0.0906,1.81901 -0.34892,4.43839 -0.57402,5.82084 -0.22511,1.38245 -0.71386,3.64463 -1.0861,5.02708 -0.37225,1.38245 -1.26388,3.94547 -1.9814,5.6956 -0.71753,1.75013 -2.16575,4.6801 -3.21829,6.51104 -1.05253,1.83094 -2.17781,3.67323 -2.50062,4.09398 z"
       id="path458"
       sodipodi:nodetypes="scssssssssssssaassssasssssssssssscssssssssssssssssssssscsssssssssssssssscsssssscssscssssssssssssssssssssssssssssssssssssssssssssssssssssssssssssassssssssssssasssssssssssscsssssssscssssscsssssssssssacasssssssssssaaassssscccssssssssssssscccassssssscssssccssssssaasssssssaasaaasssssssssssss" />
  </g>
</svg>
