<?xml version="1.0" encoding="UTF-8" standalone="no"?>
<!-- Created with Inkscape (http://www.inkscape.org/) -->

<svg
   width="200mm"
   height="150mm"
   viewBox="0 0 200 150"
   version="1.1"
   id="svg771"
   sodipodi:docname="illustration_bis.svg"
   inkscape:version="1.2.1 (9c6d41e410, 2022-07-14)"
   inkscape:export-filename="illustration.png"
   inkscape:export-xdpi="150"
   inkscape:export-ydpi="150"
   xml:space="preserve"
   xmlns:inkscape="http://www.inkscape.org/namespaces/inkscape"
   xmlns:sodipodi="http://sodipodi.sourceforge.net/DTD/sodipodi-0.dtd"
   xmlns="http://www.w3.org/2000/svg"
   xmlns:svg="http://www.w3.org/2000/svg"><sodipodi:namedview
     id="namedview773"
     pagecolor="#ffffff"
     bordercolor="#666666"
     borderopacity="1.0"
     inkscape:showpageshadow="2"
     inkscape:pageopacity="0.0"
     inkscape:pagecheckerboard="0"
     inkscape:deskcolor="#d1d1d1"
     inkscape:document-units="mm"
     showgrid="false"
     inkscape:zoom="0.84096521"
     inkscape:cx="-181.93381"
     inkscape:cy="268.14427"
     inkscape:window-width="1920"
     inkscape:window-height="992"
     inkscape:window-x="-8"
     inkscape:window-y="-8"
     inkscape:window-maximized="1"
     inkscape:current-layer="layer1" /><defs
     id="defs768" /><g
     inkscape:label="Layer 1"
     inkscape:groupmode="layer"
     id="layer1"><path
       id="path870"
       style="stroke-width:1.22042"
       d="m 47.155637,59.419223 c -4.74343,0.23667 -6.860282,5.398251 -6.093936,9.500087 0.144539,13.501516 0.426332,27.001124 0.635715,40.50173 -3.859294,4.12025 -9.142312,7.66931 -10.774611,13.30345 -0.879051,4.67188 1.045205,9.14751 3.880049,12.77981 2.683748,3.36614 5.526128,6.9927 9.324936,9.08497 1.331693,-2.40769 -4.699129,-5.58523 -5.786493,-8.45613 -2.685504,-4.17282 -6.836519,-9.32268 -4.038278,-14.45143 1.861123,-2.60237 6.174441,-8.46692 7.740054,-7.86973 -0.179116,2.02255 0.951803,10.71325 2.330631,4.6172 0.506374,-17.70445 -0.631314,-35.414284 -0.366354,-53.116869 -0.101673,-3.514232 5.615578,-4.895798 5.810825,0.987618 1.110989,13.427086 3.254569,26.279781 4.630266,40.165141 0.349995,3.13406 3.28661,2.82076 3.085359,-0.56335 -0.826727,-5.942361 7.720294,-7.158602 7.579187,-0.76485 -0.239817,2.94743 1.257339,9.62148 3.998931,4.34739 6.276094,-3.03829 3.765941,6.40521 6.648565,8.44559 1.885384,-1.97901 4.863901,-5.04464 7.594135,-1.45345 2.187444,4.31306 0.678514,9.59512 1.146691,14.29436 0.965535,4.36297 -1.933937,9.39342 -0.626569,13.10299 4.490531,-0.948 3.10197,-8.45546 3.453968,-12.1871 -0.08815,-4.67176 -0.05868,-9.35985 -0.198071,-14.02453 -1.321637,-3.72471 -5.605944,-6.38793 -9.269469,-5.04223 -1.012127,-4.09745 -4.512368,-7.7688 -9.488162,-6.73293 C 68.248135,100.69357 62.78118,95.466903 57.745887,98.980169 56.382925,99.992255 56.311679,97.942861 55.472366,91.941374 54.633053,85.939887 53.174619,72.485689 51.708474,62.801672 51.302255,60.559226 49.504317,59.013121 47.155637,59.419223 Z m 3.093078,26.837149 c -2.187681,-0.567044 -7.254086,1.585846 -2.627002,1.673321 0.950607,0.289153 6.258684,-0.86288 2.627002,-1.673321 z m -2.840083,3.949999 c -4.670153,3.053087 6.393048,-0.251821 0,0 z m 31.475951,39.803599 c -4.572905,0.50051 -0.937239,4.587 1.726891,2.00929 1.181451,-1.16668 -0.290186,-2.09422 -1.726891,-2.00929 z m 0.08977,4.30582 c -4.84792,0.27241 2.719061,3.98421 1.222541,0.43098 -0.202293,-0.4551 -0.72005,-0.42004 -1.222541,-0.43098 z m -1.230712,5.16192 c 0.08755,0.7011 2.258784,0.31155 1.832115,-0.70951 -0.426669,-1.02106 -1.919668,0.008 -1.832115,0.70951 z" /><path
       id="path452"
       style="stroke-width:1.46035"
       transform="matrix(0.68476736,0,0,0.68476736,11.572115,31.868983)"
       d="m 214.54883,-38.638672 c -2.2207,4.372046 -13.61154,15.282795 -5.43945,17.302734 1.9024,-4.133233 12.48353,-14.893804 5.43945,-17.302734 z m 25.83984,11.949219 c -7.39428,2.912187 -12.87053,9.783268 -18.5625,15.195312 2.20546,8.4092959 11.55816,-5.785884 15.37305,-8.033203 0.9929,-1.570598 7.32108,-5.761394 3.18945,-7.162109 z m -43.19922,9.515625 c -9.54983,-0.0015 -14.44843,9.9615023 -22.16992,14.189453 -26.27007,19.568585 -56.71396,33.31597 -88.691405,40.349609 -3.519148,0.553642 -6.878925,1.239681 -5.847656,5.580078 1.22039,4.626427 -3.53208,4.376175 -6.673828,5.216797 -9.013585,3.874353 -2.26605,16.825229 -1.431641,24.191407 1.763678,7.615971 6.787271,15.456383 15.599609,10.939453 3.577205,2.660018 5.364729,8.523769 11.361329,4.638672 7.208172,-2.614717 14.428982,-5.13783 18.265622,4.871093 6.00212,15.658186 17.09146,29.227326 29.11719,41.009766 8.4354,0.28994 16.63068,-4.86901 24.64453,-6.74609 8.01385,-1.87708 14.22948,-11.14121 2.8125,-13.57032 -4.33045,-0.92136 -9.56324,-0.34903 -13.17969,-2.34765 -4.90855,-9.74031 -9.31788,-19.784172 -12.76367,-30.128909 7.74591,-3.978974 17.65925,-1.477599 26.24024,-1.669922 14.3158,0.197591 28.14202,4.134725 42.25781,5.794922 11.00292,-0.407435 16.14694,-13.053976 16.8418,-22.546875 3.05364,-25.003753 -3.44651,-51.676282 -19.73047,-71.1542966 -4.25285,-4.6704304 -10.04585,-8.8305764 -16.65235,-8.6171874 z m 0.15235,4.564453 c 10.04393,0.176901 20.31715,17.5543445 23.90234,24.861328 7.46446,18.094696 12.0364,39.015566 5.60938,58.082031 -2.29866,10.05012 -14.47509,13.302844 -21.25977,5.423828 -4.9197,-4.857771 -11.26606,-11.610837 -11.54297,-18.304687 8.38778,-3.813296 18.82246,-8.404722 20.08203,-18.859375 1.20465,-10.209054 -7.42891,-20.135396 -17.83008,-19.685547 -4.44929,-0.02272 -8.97019,0.649408 -13.3789,0.496094 0.47108,-10.8205191 -1.09429,-24.9066893 10.14844,-30.957031 1.40534,-0.756293 2.83468,-1.081913 4.26953,-1.056641 z m 57.81836,6.1660156 c -8.44535,2.5787046 -16.63206,6.48366962 -23.9668,11.390625 2.84439,8.1037504 13.75415,-4.11529527 19.43555,-4.75781248 2.09785,-1.24992152 9.62889,-3.99828352 4.53125,-6.63281252 z m -76.2793,7.24414065 c 0.12497,11.40451475 -2.04851,23.36971275 1.23437,34.67578075 3.29655,14.36793 9.19863,27.992291 17.57618,40.128907 C 192.735,78.942717 184.7122,72.9551 181.90234,67.154297 173.11138,49.005841 166.90392,28.49939 170.15039,8.4121094 c 1.70973,-3.3355587 5.56354,-5.8192116 8.73047,-7.61132815 z M 162.77148,11.580078 c 1.47259,-0.325523 1.58583,1.729339 1.54493,2.605469 -0.45732,20.499243 4.32413,41.420222 15.23437,58.855469 -7.6993,2.031487 -16.76339,0.99385 -24.94531,1.662109 -12.55659,0.09796 -25.05425,1.766558 -37.37695,3.787109 -4.74985,-6.239652 -5.36425,-14.737478 -7.55469,-22.146484 -1.22222,-6.381118 -2.78213,-13.231291 -2.25781,-19.587891 19.45383,-5.837725 37.90225,-14.85919 55.35546,-25.175781 z m 99.85547,6.027344 c -7.07667,2.858502 -21.21142,1.43623 -23.03515,9.039062 7.90371,1.555595 16.88978,-3.069266 24.71484,-5.345703 2.8326,-1.032128 0.46402,-4.311237 -1.67969,-3.693359 z M 193.52148,23.5 c 12.1286,-0.736875 19.66652,13.086319 13.25391,20.679688 -6.41261,7.593367 -15.89879,9.796548 -18.85742,0.84375 C 184.95934,36.070639 181.39288,24.236875 193.52148,23.5 Z m -92.45703,15.789062 c 3.07696,7.306005 2.5254,16.927822 5.41016,24.806641 1.40583,6.751051 8.60174,14.623383 -3.17969,17.789063 -11.781426,3.16568 -11.170937,-7.16958 -13.564451,-13.964844 -2.107558,-8.191206 -4.685162,-16.623963 -3.71875,-25.16211 4.61581,-1.760863 10.105253,-2.623195 15.052731,-3.46875 z m 166.61328,3.361329 c -0.55184,-0.228383 -1.16852,-0.252116 -1.76562,0.05664 -7.41764,2.604676 -21.58322,-3.086201 -24.58984,4.63086 8.12206,2.911895 18.50239,0.515686 27.26367,-0.492188 1.81705,-0.976593 0.74734,-3.510166 -0.90821,-4.195312 z m -188.037105,9.125 c 3.987869,7.295585 5.637111,17.894058 7.130859,26.361328 -8.983527,5.289862 -9.894956,-9.255372 -11.724609,-14.84961 -0.6144,-4.538053 -2.929716,-12.105894 4.59375,-11.511718 z M 241.78906,63.134766 c -2.03254,7.147457 13.77777,6.378012 19.21289,8.966796 10.51299,-0.652035 -1.53225,-6.291737 -6.13281,-6.517578 -4.60056,-0.225841 -8.64809,-2.139019 -13.08008,-2.449218 z m -99.92968,16.748046 c 1.87838,2.698306 5.15752,9.308753 -1.63477,8.070313 -4.69113,-0.855335 -12.5198,6.429089 -4.80273,5.482422 7.71707,-0.946667 16.71015,-1.316187 12.9746,5.949219 -5.80455,-1.485878 -12.85624,6.138644 -3.4121,5.392574 3.19444,0.0181 7.21881,-2.22234 8.54296,2.375 0.92702,3.21854 3.03279,5.97236 4.54883,8.95899 5.58824,0.80907 11.64825,0.4105 16.76172,2.91015 -7.04357,4.64226 -18.87738,11.17642 -27.625,8.14063 -11.72087,-12.57442 -21.18488,-27.365879 -28.31055,-42.980469 4.58449,-3.205457 12.38316,-2.441041 18.11914,-3.732422 z m 91.93359,1.927735 c -2.74296,5.83515 9.7948,11.563852 14.56836,12.177734 1.7897,-5.97024 -9.89091,-10.104345 -14.56836,-12.177734 z"
       sodipodi:nodetypes="cccccccccccccccsczscccccccscccccccsscccccccsccccccccccccccsssscczcccscccsccccccsccszccsccccccccc" /></g></svg>
