<?xml version="1.0" encoding="UTF-8" standalone="no"?>
<!-- Created with Inkscape (http://www.inkscape.org/) -->

<svg
   width="150mm"
   height="150mm"
   viewBox="0 0 150 150"
   version="1.1"
   id="svg623"
   inkscape:version="1.2.1 (9c6d41e410, 2022-07-14)"
   sodipodi:docname="megaphone.svg"
   xmlns:inkscape="http://www.inkscape.org/namespaces/inkscape"
   xmlns:sodipodi="http://sodipodi.sourceforge.net/DTD/sodipodi-0.dtd"
   xmlns="http://www.w3.org/2000/svg"
   xmlns:svg="http://www.w3.org/2000/svg">
  <sodipodi:namedview
     id="namedview625"
     pagecolor="#ffffff"
     bordercolor="#666666"
     borderopacity="1.0"
     inkscape:showpageshadow="2"
     inkscape:pageopacity="0.0"
     inkscape:pagecheckerboard="0"
     inkscape:deskcolor="#d1d1d1"
     inkscape:document-units="mm"
     showgrid="false"
     inkscape:zoom="0.4204826"
     inkscape:cx="388.83892"
     inkscape:cy="367.43494"
     inkscape:window-width="1920"
     inkscape:window-height="992"
     inkscape:window-x="-8"
     inkscape:window-y="-8"
     inkscape:window-maximized="1"
     inkscape:current-layer="layer1" />
  <defs
     id="defs620" />
  <g
     inkscape:label="Layer 1"
     inkscape:groupmode="layer"
     id="layer1">
    <path
       style="fill:#000000;stroke-width:1"
       d="m 59.423802,133.06571 c 1.004407,0.63759 2.259324,0.41747 8.352514,-1.46509 3.943779,-1.21847 8.674237,-2.95111 10.512119,-3.85031 1.837883,-0.89918 3.781355,-2.30603 4.318834,-3.12632 0.872823,-1.33212 0.884029,-1.6578 0.104958,-3.0486 -0.515114,-0.91946 -1.831838,-1.88327 -3.21534,-2.35353 -1.288661,-0.43803 -4.020375,-0.94107 -6.070478,-1.11789 l -3.727455,-0.32147 -1.763418,-3.49332 c -0.969873,-1.92131 -2.949331,-6.3888 -4.398791,-9.92778 -1.44946,-3.53895 -2.635389,-6.695265 -2.635389,-7.014037 0,-0.31874 1.795174,-0.77724 3.989251,-1.01888 2.194092,-0.241624 8.776353,-0.12737 14.627256,0.253966 7.08186,0.461531 13.008774,1.2186 17.730015,2.264738 3.900592,0.864285 8.346972,1.566623 9.880842,1.560783 1.94857,-0.006 3.40196,-0.430758 4.82385,-1.405051 1.11926,-0.766918 2.7323,-2.469097 3.58456,-3.782554 0.85228,-1.313457 1.9715,-3.717875 2.4872,-5.343127 0.53824,-1.696309 1.06424,-6.06014 1.23484,-10.244801 0.18078,-4.433719 0.0126,-9.064696 -0.43124,-11.820005 -0.40064,-2.491604 -1.36696,-6.737425 -2.14737,-9.435142 -0.78042,-2.6977 -2.382,-6.952912 -3.55911,-9.455991 -1.17709,-2.50311 -3.2854,-6.171095 -4.6851,-8.151121 -1.39971,-1.979994 -3.49981,-4.438406 -4.66688,-5.463111 -1.16707,-1.024719 -3.16777,-2.396637 -4.445984,-3.048733 -1.46387,-0.746795 -3.487125,-1.185629 -5.466567,-1.185629 -1.981588,0 -3.682379,0.36931 -4.603798,0.999688 -0.803693,0.549821 -3.056957,2.4378 -5.007247,4.195473 -1.950306,1.757704 -7.099585,5.576039 -11.442835,8.485202 -4.34325,2.909179 -11.332606,7.011089 -15.531882,9.115344 -4.199277,2.104255 -9.688004,4.648985 -12.197175,5.654955 -2.509171,1.005938 -6.423783,2.487864 -8.699127,3.293119 -2.275359,0.805271 -8.126262,2.466099 -13.002003,3.690712 l -8.865008,2.22659 -0.17655,2.653366 -0.17655,2.653366 -3.255303,0.728502 c -2.6522925,0.593556 -3.365769,1.019085 -3.8516686,2.297077 -0.4036379,1.061668 -0.3957936,3.05885 0.024306,6.180328 0.3413734,2.536492 1.0300231,5.996897 1.5303643,7.689796 0.5003411,1.692914 1.6396303,4.407755 2.5317563,6.033024 1.400706,2.551785 1.862505,2.948952 3.384362,2.910662 0.969274,-0.02431 2.744845,-0.250668 3.94572,-0.50285 2.104081,-0.441897 2.215715,-0.381226 3.072598,1.669551 0.48904,1.17047 1.28249,2.12812 1.763197,2.12812 0.480706,0 3.353237,-0.66418 6.383409,-1.476 3.030157,-0.81183 5.915535,-1.47667 6.41193,-1.47751 0.547154,-0.001 1.905813,2.03479 3.450398,5.16976 1.401306,2.8442 4.502865,8.09671 6.892321,11.67227 2.389472,3.57556 6.022828,8.46999 8.074115,10.87657 2.051302,2.40653 4.261541,4.71319 4.911632,5.12589 z m 2.659506,-3.96451 c -1.12589,0.009 -2.381028,-1.07009 -5.274108,-4.53542 -2.08814,-2.50114 -5.449348,-7.07407 -7.469384,-10.16204 -2.02002,-3.08797 -4.781327,-7.70482 -6.136261,-10.25964 -1.354919,-2.55483 -2.358695,-4.749948 -2.230599,-4.878028 0.128159,-0.128002 1.672428,-0.492134 3.431869,-0.808997 1.759424,-0.316862 5.159159,-0.803487 7.55496,-1.081413 l 4.355987,-0.505281 0.84989,2.034052 c 0.467433,1.118727 0.760147,2.123777 0.650486,2.233457 -0.109693,0.10969 -2.046757,0.49452 -4.304644,0.85522 -2.257872,0.36069 -4.307265,0.97359 -4.554176,1.36198 -0.246912,0.38837 -0.453008,0.87304 -0.45798,1.07704 -0.0047,0.20393 0.382,0.69543 0.859976,1.0921 0.585649,0.48604 1.886495,0.59579 3.98925,0.3366 1.716116,-0.21154 3.79788,-0.51289 4.626116,-0.66963 1.260678,-0.23854 1.666415,0.0516 2.491525,1.78192 0.542088,1.13678 0.795265,2.17603 0.562606,2.30945 -0.232659,0.13337 -1.662722,0.4222 -3.177934,0.64174 -1.685607,0.24421 -2.893869,0.76129 -3.112939,1.33221 -0.196926,0.51317 -0.04151,1.31448 0.345461,1.7807 0.538347,0.64867 1.546716,0.75993 4.294954,0.47392 l 3.591436,-0.37376 2.068506,4.03143 2.06849,4.03143 4.548652,0.45061 c 2.501753,0.24783 5.155403,0.67506 5.897005,0.94939 1.30757,0.48371 1.286215,0.53093 -0.706579,1.56144 -1.13023,0.58445 -4.581733,1.93222 -7.670019,2.99502 -3.088286,1.06281 -6.279936,1.93784 -7.092546,1.9445 z M 24.757238,98.498853 c -0.213688,-0.191197 -1.19128,-2.639981 -2.172407,-5.44174 -0.981127,-2.801775 -2.353533,-7.754869 -3.049806,-11.006889 -0.696273,-3.252036 -1.181415,-6.9204 -1.078099,-8.151926 l 0.187851,-2.239153 4.918182,-1.141768 c 2.704993,-0.627995 5.028002,-1.03198 5.162237,-0.897729 0.134315,0.134157 0.531576,2.353565 0.882956,4.931835 0.35138,2.578254 1.167763,6.815362 1.814193,9.415744 0.646429,2.600414 1.692741,6.13421 2.325139,7.85293 0.632383,1.718704 1.149802,3.462978 1.149802,3.876164 0,0.450025 -1.954978,1.232174 -4.875758,1.950717 -2.681665,0.659703 -5.050603,1.043028 -5.26429,0.851815 z m 81.825892,-1.82513 c -1.52448,0 -3.21356,-0.574664 -4.97803,-1.693656 -1.46885,-0.931505 -3.610696,-2.859652 -4.75966,-4.284758 -1.148981,-1.425091 -2.791737,-3.811232 -3.650592,-5.302518 -0.858839,-1.491253 -1.561536,-2.984843 -1.561536,-3.319051 0,-0.334207 1.559484,-1.176253 3.465534,-1.871216 1.906035,-0.694995 4.678374,-2.331201 6.160754,-3.63604 1.63791,-1.441742 3.09208,-3.41154 3.7068,-5.021183 0.71393,-1.869418 0.90028,-3.460594 0.63334,-5.408044 -0.20802,-1.517643 -1.04165,-3.89141 -1.85253,-5.275086 -1.08891,-1.858085 -2.32968,-2.934227 -4.746236,-4.116557 -3.048544,-1.491506 -3.659446,-1.580523 -8.948075,-1.303892 l -5.676135,0.296897 0.351616,-4.797694 c 0.193407,-2.638751 0.753882,-6.130848 1.245526,-7.76022 0.491645,-1.629404 1.573879,-3.884182 2.404955,-5.01064 0.831077,-1.126458 2.102772,-2.376909 2.826002,-2.778794 0.723215,-0.401855 1.923933,-0.740087 2.668249,-0.751609 0.744301,-0.01105 2.340008,0.494801 3.545997,1.125148 1.205989,0.630363 2.880291,1.760624 3.720681,2.511759 0.84038,0.751104 2.52289,2.675905 3.73892,4.27734 1.21601,1.60142 3.09,4.659829 4.16441,6.796502 1.07442,2.136642 2.65507,6.109288 3.51255,8.828122 0.85748,2.718819 1.98375,7.372933 2.50282,10.342483 0.65341,3.738077 0.8441,7.222788 0.61982,11.326498 -0.21935,4.01354 -0.74916,7.066582 -1.64092,9.456007 -0.72432,1.940788 -2.17869,4.393061 -3.23191,5.449474 -1.50748,1.512024 -2.40595,1.920728 -4.22235,1.920728 z M 15.521027,96.002246 c -0.417859,0.04419 -1.300262,-1.180452 -1.960881,-2.721628 -0.660619,-1.54116 -1.578061,-4.400117 -2.038755,-6.353248 -0.46071,-1.953132 -0.841573,-4.532758 -0.846371,-5.732498 -0.0047,-1.19977 0.19074,-2.293273 0.43451,-2.43005 0.243786,-0.136682 1.162191,-0.420368 2.040901,-0.63022 1.480143,-0.353479 1.625237,-0.218234 1.97245,1.83905 0.206128,1.221299 1.04325,4.747109 1.860263,7.835064 0.81703,3.087986 1.616919,6.058119 1.777576,6.600301 0.202592,0.683789 -0.132578,1.066482 -1.093929,1.249251 -0.76231,0.144889 -1.72789,0.299706 -2.145764,0.343978 z m 24.31619,-0.587575 c -0.37103,0.04246 -1.119324,-1.034442 -1.662895,-2.39296 -0.543555,-1.358486 -1.7822,-5.547219 -2.752531,-9.308229 C 34.451444,79.95244 33.501062,74.85212 33.309834,72.379408 l -0.347718,-4.495841 1.706346,-0.424425 c 0.938481,-0.233448 4.498809,-1.502996 7.911832,-2.821235 3.413024,-1.318239 9.47943,-3.96455 13.480912,-5.880669 4.001482,-1.916136 9.015215,-4.54084 11.141661,-5.832705 2.12643,-1.291834 3.905553,-2.348751 3.953581,-2.348688 0.04798,6.3e-5 0.121688,2.85902 0.163797,6.353248 0.04766,3.957289 0.561154,8.676036 1.361721,12.512837 0.706911,3.38785 2.11251,8.307942 3.123562,10.933498 1.011067,2.625603 2.492251,5.97057 3.291525,7.433288 0.799273,1.462749 1.686333,2.912177 1.97125,3.220959 0.284901,0.308812 0.518003,0.738871 0.518003,0.955716 0,0.216892 -6.316316,0.555992 -14.036257,0.753676 -9.613933,0.246154 -16.084482,0.712135 -20.537251,1.478974 -3.575558,0.615779 -6.804567,1.154268 -7.175581,1.19663 z M 91.485566,93.873006 C 90.1041,93.694751 88.441915,93.350695 87.791808,93.108629 87.141716,92.866579 85.312056,90.514608 83.725899,87.882013 82.139757,85.249417 79.955955,80.499136 78.873011,77.325842 77.790067,74.152564 76.494824,69.194324 75.994673,66.307557 c -0.500152,-2.886766 -0.906442,-7.274935 -0.902859,-9.751514 0.0032,-2.476548 0.171342,-5.500201 0.372845,-6.719196 0.291562,-1.763907 0.923677,-2.61678 3.096241,-4.177622 l 2.729914,-1.961244 0.03346,10.383124 c 0.02983,9.259807 0.199088,10.995242 1.564787,16.04122 0.842251,3.111961 2.385716,7.710329 3.429912,10.218648 1.044212,2.508287 3.19902,6.552621 4.788461,8.987422 1.589425,2.434785 2.889892,4.526334 2.889892,4.647864 0,0.121531 -1.130294,0.07513 -2.51176,-0.103221 z M 90.329278,77.761267 c -0.74165,3.32e-4 -1.400595,-1.240601 -2.490042,-4.689327 -0.814836,-2.57939 -1.806901,-6.455759 -2.204604,-8.61415 -0.604494,-3.280714 -0.588458,-4.007575 0.09786,-4.431699 0.451476,-0.27903 2.091707,-0.6821 3.644925,-0.895724 1.553234,-0.213546 3.929085,-0.201709 5.279663,0.02636 1.540797,0.260311 3.235022,1.129156 4.5478,2.332226 1.85537,1.700333 2.12095,2.314912 2.34625,5.429524 0.22985,3.177761 0.0958,3.700261 -1.40818,5.487607 -0.914222,1.086495 -3.269365,2.735738 -5.233639,3.665033 -1.964274,0.929263 -4.025252,1.689789 -4.57995,1.690042 z m 37.248992,28.912803 c 0.22086,-0.0257 0.73398,-0.1807 1.1403,-0.34475 0.40631,-0.16395 0.73875,-0.7666 0.73875,-1.33923 0,-0.57264 -0.46541,-1.43116 -1.03425,-1.90785 -0.56884,-0.47668 -2.79117,-1.98695 -4.93853,-3.356137 -2.4291,-1.548878 -4.27134,-2.348626 -4.87576,-2.116708 -0.5343,0.205054 -0.97147,0.972809 -0.97147,1.706157 0,1.022868 1.11063,2.040258 4.76972,4.369278 2.62334,1.66976 4.95041,3.01491 5.17124,2.98924 z m 9.56425,-15.034756 c 1.31126,0.228698 2.34083,0.09091 2.80725,-0.375433 0.40511,-0.405106 0.73655,-1.072938 0.73655,-1.484057 0,-0.411135 -0.46541,-0.981711 -1.03425,-1.267954 -0.56884,-0.286243 -4.15396,-1.25689 -7.96695,-2.156955 -3.81296,-0.900096 -7.35546,-1.474286 -7.8722,-1.276003 -0.56565,0.217113 -0.86422,0.887139 -0.75031,1.683887 0.16287,1.139085 1.01212,1.545595 6.0992,2.919375 3.25051,0.877795 6.84182,1.758525 7.98071,1.95714 z m -9.58516,-15.755892 c 1.8576,-0.05792 5.98099,-0.257423 9.16309,-0.44327 4.12541,-0.240961 5.93667,-0.583171 6.31201,-1.192589 0.31781,-0.515982 0.28343,-1.308611 -0.0866,-2.000276 -0.54583,-1.019906 -1.04406,-1.104945 -4.53903,-0.774809 -2.15922,0.203933 -6.10097,0.372734 -8.75942,0.375038 -3.59928,0.0016 -5.07039,0.241056 -5.76108,0.931742 -0.70015,0.700156 -0.77784,1.207268 -0.31692,2.068506 0.50567,0.944857 1.19114,1.122859 3.98808,1.035658 z m -3.49443,-14.134491 c 0.52903,-0.03062 4.2629,-0.903932 8.29746,-1.940537 4.69315,-1.205815 7.56355,-2.246161 7.96848,-2.888108 0.47848,-0.758553 0.40564,-1.230674 -0.29851,-1.934807 -0.84788,-0.847886 -1.48298,-0.792976 -7.08198,0.612354 -3.3828,0.849069 -7.12053,1.798015 -8.30604,2.108737 -1.18552,0.310739 -2.3204,0.994716 -2.52195,1.519979 -0.20155,0.525247 -0.0633,1.320196 0.30709,1.766591 0.37046,0.446362 1.10641,0.786489 1.63545,0.755791 z m -5.6145,-12.998106 c 0.36651,-0.02857 4.20827,-1.760703 8.53724,-3.849238 6.92374,-3.340405 7.84824,-3.956421 7.68299,-5.119354 -0.11396,-0.802004 -0.66463,-1.390241 -1.39998,-1.495452 -0.66668,-0.09533 -4.59335,1.422234 -8.72594,3.372524 -4.13258,1.950291 -7.67261,3.959862 -7.86673,4.465728 -0.1941,0.505849 -0.0246,1.315271 0.37656,1.798709 0.4012,0.483437 1.02934,0.855619 1.39586,0.827083 z M 111.9383,37.570069 c 0.78095,-0.0016 3.49582,-2.098162 7.08122,-5.466757 4.54498,-4.270142 5.72224,-5.695943 5.39125,-6.52934 -0.27349,-0.688618 -0.90797,-1.002576 -1.79165,-0.886492 -0.75251,0.09896 -3.75372,2.307337 -6.66935,4.907734 -2.91562,2.600398 -5.449,5.060436 -5.62975,5.466741 -0.18072,0.406321 -0.17552,1.13768 0.011,1.625269 0.18709,0.487572 0.91012,0.884865 1.60671,0.882845 z M 100.38241,28.64668 c 0.58636,0.313816 1.36227,0.387507 1.72427,0.163734 0.36199,-0.223726 1.63874,-2.133296 2.83721,-4.243517 1.19846,-2.110205 2.40717,-4.426127 2.68601,-5.146501 0.35591,-0.919525 0.24437,-1.572363 -0.37441,-2.191125 -0.48476,-0.484763 -1.25697,-0.737262 -1.71602,-0.561106 -0.45907,0.176234 -2.04706,2.460227 -3.52891,5.075714 -1.48183,2.61547 -2.694239,5.110215 -2.694239,5.54381 0,0.43361 0.479728,1.045127 1.066089,1.358943 z"
       id="path452" />
  </g>
</svg>
