<?xml version="1.0" encoding="UTF-8" standalone="no"?>
<!-- Created with Inkscape (http://www.inkscape.org/) -->

<svg
   version="1.1"
   id="svg2"
   width="210mm"
   height="297mm"
   viewBox="0 0 793.70079 1122.5197"
   sodipodi:docname="poster.svg"
   inkscape:version="1.2.1 (9c6d41e410, 2022-07-14)"
   xmlns:inkscape="http://www.inkscape.org/namespaces/inkscape"
   xmlns:sodipodi="http://sodipodi.sourceforge.net/DTD/sodipodi-0.dtd"
   xmlns="http://www.w3.org/2000/svg"
   xmlns:svg="http://www.w3.org/2000/svg">
  <defs
     id="defs6">
    <rect
       x="68.946657"
       y="116.03218"
       width="28.587638"
       height="114.35055"
       id="rect1477" />
    <clipPath
       clipPathUnits="userSpaceOnUse"
       id="clipPath547">
      <g
         id="g551"
         style="stroke-width:1">
        <path
           d="M 724.04663,6227.5581 H 4244.2715 v 84.4102 H 724.04663 Z"
           clip-rule="evenodd"
           id="path549"
           style="stroke-width:3.125" />
      </g>
    </clipPath>
    <clipPath
       clipPathUnits="userSpaceOnUse"
       id="clipPath576">
      <g
         id="g582"
         style="stroke-width:1">
        <g
           id="g580"
           style="stroke-width:1"
           transform="translate(-1.32458e-5)">
          <path
             d="M 503.45334,1177.8782 H 4417.5932 v 81.284 H 503.45334 Z"
             clip-rule="evenodd"
             id="path578"
             style="stroke-width:3.125" />
        </g>
      </g>
    </clipPath>
    <clipPath
       clipPathUnits="userSpaceOnUse"
       id="clipPath621">
      <g
         id="g627"
         style="stroke-width:1">
        <g
           id="g625"
           style="stroke-width:1">
          <path
             d="M 0,0 H 4961.4541 V 7018.5664 H 0 Z"
             clip-rule="evenodd"
             id="path623"
             style="stroke-width:3.125" />
        </g>
      </g>
    </clipPath>
    <clipPath
       clipPathUnits="userSpaceOnUse"
       id="clipPath651">
      <g
         id="g657"
         style="stroke-width:1">
        <g
           id="g655"
           style="stroke-width:1">
          <path
             d="M 0,0 H 4961.4541 V 7018.5664 H 0 Z"
             clip-rule="evenodd"
             id="path653"
             style="stroke-width:3.125" />
        </g>
      </g>
    </clipPath>
    <clipPath
       clipPathUnits="userSpaceOnUse"
       id="clipPath681">
      <g
         id="g687"
         style="stroke-width:1">
        <g
           id="g685"
           style="stroke-width:1">
          <path
             d="M 0,0 H 4970.833 V 7062.3345 H 0 Z"
             clip-rule="evenodd"
             id="path683"
             style="stroke-width:3.125" />
        </g>
      </g>
    </clipPath>
  </defs>
  <sodipodi:namedview
     id="namedview4"
     pagecolor="#ffffff"
     bordercolor="#666666"
     borderopacity="1.0"
     inkscape:showpageshadow="2"
     inkscape:pageopacity="0.0"
     inkscape:pagecheckerboard="0"
     inkscape:deskcolor="#d1d1d1"
     showgrid="false"
     inkscape:zoom="0.84097995"
     inkscape:cx="238.41234"
     inkscape:cy="704.53522"
     inkscape:window-width="1920"
     inkscape:window-height="992"
     inkscape:window-x="-8"
     inkscape:window-y="-8"
     inkscape:window-maximized="1"
     inkscape:current-layer="g10"
     inkscape:document-units="mm">
    <inkscape:page
       x="0"
       y="0"
       id="page8"
       width="793.70074"
       height="1122.5198" />
  </sodipodi:namedview>
  <g
     id="g10"
     inkscape:groupmode="layer"
     inkscape:label="Page 1"
     transform="matrix(0.31999998,0,0,0.31999998,0,5.6496e-5)">
    <path
       d="M 0,0 H 4961.4541 V 7018.5662 H 0 Z"
       style="fill:#8fdbda;fill-opacity:1;fill-rule:nonzero;stroke:none;stroke-width:6.25438"
       id="path46"
       clip-path="url(#clipPath621)"
       transform="matrix(0.49991697,0,0,0.49979927,0,-1.7655001e-4)" />
    <path
       d="m 4391.9003,1219.4433 v -10.1546 c 1.88,-11.6932 12.8467,-20.9247 25.6934,-20.9247 v -10.4624 c -18.8,0 -34.1538,13.5395 -36.9738,31.3871 H 540.42685 c -2.82002,-17.8476 -18.17342,-31.3871 -36.97351,-31.3871 v 10.4624 c 14.72673,0 26.63346,11.6932 26.63346,26.1559 0,14.4627 -11.90673,26.1559 -26.63346,26.1559 v 10.4624 c 18.80009,0 34.15349,-13.5396 36.97351,-31.3871 H 4380.9336 c 2.8197,17.5398 18.1731,31.3871 36.9732,31.3871 v -10.4624 c -12.8464,0 -23.8132,-9.2315 -26.0065,-21.2325"
       style="fill:#ffffff;fill-opacity:1;fill-rule:nonzero;stroke:none;stroke-width:6.0237"
       id="path76"
       clip-path="url(#clipPath576)"
       transform="matrix(0.51895185,0,0,0.51203909,-36.735584,-71.881813)" />
    <path
       d="m 4218.0738,6270.7212 v -10.5392 c 1.9166,-12.1362 13.0988,-21.7173 26.198,-21.7173 v -10.8587 c -19.1695,0 -34.8246,14.0524 -37.6997,32.576 H 761.74666 c -2.87543,-18.5236 -18.53052,-32.576 -37.70003,-32.576 v 10.8587 c 15.01611,0 27.1568,12.1361 27.1568,27.1466 0,15.0105 -12.14069,27.1466 -27.1568,27.1466 v 10.8586 c 19.16951,0 34.8246,-14.0523 37.70003,-32.5759 H 4206.8916 c 2.8754,18.2042 18.5302,32.5759 37.6997,32.5759 v -10.8586 c -13.0992,0 -24.2814,-9.5812 -26.5175,-22.0367"
       style="fill:#ffffff;fill-opacity:1;fill-rule:nonzero;stroke:none;stroke-width:5.98689"
       id="path88"
       clip-path="url(#clipPath547)"
       transform="matrix(0.57702283,0,0,0.49335292,-195.91642,36.967413)" />
    <text
       xml:space="preserve"
       style="font-style:normal;font-variant:normal;font-weight:600;font-stretch:normal;font-size:100px;font-family:'Josefin Sans';-inkscape-font-specification:'Josefin Sans Semi-Bold';writing-mode:lr-tb;fill:#ffffff;fill-opacity:1;fill-rule:nonzero;stroke:none;stroke-width:3.1263"
       id="text120"
       x="656.06586"
       y="3012.8457"
       transform="scale(1.0001177,0.9998823)"><tspan
         x="656.06586 708.27429 761.51648 792.53143 828.92224 875.54797 929.82397 959.49487 1006.1207 1088.4136 1143.1031 1177.3229 1223.9486 1254.9636 1285.9785 1316.9933 1343.7695 1407.4535 1459.145 1490.1599 1547.1239 1578.1388 1604.915 1657.1235 1708.8149 1762.0573"
         y="3012.8457"
         sodipodi:role="line"
         id="tspan118"
         style="font-style:normal;font-variant:normal;font-weight:600;font-stretch:normal;font-size:100px;font-family:'Josefin Sans';-inkscape-font-specification:'Josefin Sans Semi-Bold';stroke-width:3.1263">24 septembre - 10h à 12h30</tspan></text>
    <text
       xml:space="preserve"
       style="font-style:normal;font-variant:normal;font-weight:600;font-stretch:normal;font-size:83.3333px;font-family:'Josefin Sans';-inkscape-font-specification:'Josefin Sans Semi-Bold';writing-mode:lr-tb;fill:#ffffff;fill-opacity:1;fill-rule:nonzero;stroke:none;stroke-width:3.1263"
       id="text126"
       x="909.92993"
       y="3296.0056"
       transform="scale(1.0001177,0.99988231)"><tspan
         x="909.92993 949.70508 1006.0474 1050.9874 1100.6223 1140.3975 1160.5198 1177.1542 1231.6858 1271.0583 1327.4008 1393.8044 1433.5796 1473.8912 1520.8433"
         y="3296.0056"
         sodipodi:role="line"
         id="tspan124"
         style="font-style:normal;font-variant:normal;font-weight:600;font-stretch:normal;font-size:83.3333px;font-family:'Josefin Sans';-inkscape-font-specification:'Josefin Sans Semi-Bold';stroke-width:3.1263">LOCAL INFO@LEZE</tspan></text>
    <g
       id="g1457"
       transform="matrix(0.96551728,0,0,0.96551728,-1357.6647,-397.38428)"
       style="fill:#ffffff;stroke-width:1.03571">
      <path
         id="path456"
         style="fill:#ffffff;stroke-width:14.9292"
         d="m 1558.6631,1640.9052 c -7.9749,63.8527 40.3407,136.7545 74.7512,192.5385 48.4553,69.4432 121.9827,112.7183 194.9458,151.9163 85.2147,37.0504 -19.6918,97.9982 -54.427,133.8375 -14.4775,36.1615 27.5237,73.8574 59.6023,105.9875 32.0786,32.1301 56.7208,77.2548 8.9243,111.1281 2.1703,38.2466 105.3127,56.4793 35.674,99.6811 -54.338,45.6358 -51.2619,123.3729 -35.9361,186.0241 22.947,75.8099 -63.8496,82.0087 -109.8117,103.5639 -6.0489,57.2849 86.7016,4.3799 114.5456,-7.7505 54.6128,-43.0414 22.4273,-116.7422 18.7193,-174.0995 -1.307,-46.9552 32.6456,-80.8213 62.2915,-112.4039 42.8588,-44.7822 -37.0708,-75.1249 -39.5038,-97.5593 40.6446,-36.5512 15.6068,-91.7811 -22.3137,-118.1815 -40.4486,-31.3582 -82.3743,-76.2238 -22.3925,-112.6994 39.7915,-24.1977 88.6475,-87.36 30.8095,-125.4108 -74.2686,-51.6307 -165.0187,-84.0021 -218.8638,-160.9789 -41.8124,-51.3105 -66.2897,-113.9346 -92.6127,-173.5873 z m 505.0921,403.2255 c -56.0248,2.7953 -81.027,63.7588 -71.9757,112.2057 1.7072,159.4668 5.0355,318.9109 7.5085,478.3669 -45.5822,48.6644 -107.9801,90.5824 -127.2592,157.1274 -10.3825,55.1797 12.3449,108.0415 45.8273,150.9426 31.6979,39.7576 65.2693,82.591 110.1371,107.3028 15.7286,-28.4372 -55.5015,-65.9672 -68.3444,-99.8755 -31.7186,-49.2853 -80.7463,-110.1104 -47.6962,-170.6862 21.9817,-30.7367 72.9265,-100.003 91.4179,-92.9496 -2.1155,23.8884 11.2418,126.5345 27.5272,54.5339 5.9808,-209.1077 -7.4565,-418.279 -4.327,-627.3646 -1.2009,-41.5067 66.3257,-57.8244 68.6318,11.6648 13.1219,158.5876 38.4398,310.3911 54.6881,474.3914 4.1338,37.0165 38.8183,33.3161 36.4413,-6.6537 -9.7645,-70.1854 91.1846,-84.5505 89.518,-9.0337 -2.8325,34.8122 14.8504,113.6395 47.2314,51.3471 74.1271,-35.8853 44.4796,75.6521 78.5264,99.7511 22.2683,-23.3741 57.4476,-59.5824 89.6945,-17.1667 25.8359,50.9416 8.0139,113.3281 13.5436,168.831 11.4039,51.5311 -22.8418,110.9459 -7.4004,154.7597 53.0377,-11.1968 36.6374,-99.8676 40.7949,-143.9421 -1.0412,-55.1783 -0.6931,-110.5494 -2.3395,-165.6441 -15.6098,-43.9926 -66.2119,-75.448 -109.4819,-59.5539 -11.9542,-48.3951 -53.2957,-91.7575 -112.0649,-79.5228 -1.4748,-61.3392 -66.0452,-123.0715 -125.5171,-81.5762 -16.098,11.9537 -16.9395,-12.2517 -26.8527,-83.1354 -9.9131,-70.8837 -27.1387,-229.7916 -44.4554,-344.1697 -4.7978,-26.4856 -26.0333,-44.7467 -53.7736,-39.9502 z m 36.5324,316.9742 c -25.8388,-6.6974 -85.6782,18.7304 -31.0276,19.7636 11.2276,3.4152 73.9215,-10.1915 31.0276,-19.7636 z m -33.5443,46.6535 c -55.1593,36.0601 75.5084,-2.9743 0,0 z m 371.7632,470.1213 c -54.0107,5.9115 -11.0697,54.1771 20.3964,23.7317 13.9541,-13.7796 -3.4274,-24.7348 -20.3964,-23.7317 z m 1.0603,50.8561 c -57.2589,3.2175 32.1149,47.0576 14.4394,5.0903 -2.3892,-5.3752 -8.5045,-4.9611 -14.4394,-5.0903 z m -14.536,60.9676 c 1.0341,8.2807 26.6786,3.6797 21.6392,-8.3801 -5.0394,-12.0597 -22.6733,0.094 -21.6392,8.3801 z"
         sodipodi:nodetypes="cccczcccccccccsccccccccccccccccccccccccccccczccccccccccccczzz" />
      <path
         id="path452"
         style="fill:#ffffff;stroke-width:12.2328"
         d="m 3378.7061,1406.2321 c -17.9606,35.3603 -110.0874,123.6043 -43.9932,139.9411 15.3863,-33.4288 100.9644,-120.4581 43.9932,-139.9411 z m 208.9876,96.6429 c -59.8035,23.5532 -104.0943,79.1252 -150.1299,122.8967 17.8373,68.0128 93.4801,-46.7951 124.3342,-64.9709 8.0304,-12.7027 59.2115,-46.597 25.7957,-57.9258 z m -349.3868,76.9606 c -77.2372,-0.012 -116.8561,80.5666 -179.306,114.7615 -212.4672,158.2668 -458.6914,269.453 -717.3187,326.3397 -28.4621,4.4777 -55.6354,10.0263 -47.2947,45.1306 9.8703,37.4176 -28.5667,35.3936 -53.9766,42.1924 -72.9001,31.335 -18.3273,136.0791 -11.5788,195.6553 14.2643,61.5965 54.8941,125.0082 126.1666,88.4762 28.9317,21.5137 43.3888,68.9386 91.8882,37.5167 58.2982,-21.1474 116.6987,-41.5538 147.7287,39.3964 48.544,126.6403 138.2324,236.3849 235.4941,331.6789 68.2239,2.345 134.5057,-39.3796 199.3202,-54.561 64.8144,-15.1815 115.0852,-90.1079 22.7469,-109.7541 -35.0238,-7.4518 -77.3456,-2.8229 -106.5947,-18.9873 -39.6994,-78.7778 -75.3612,-160.0105 -103.2301,-243.6767 62.6474,-32.1812 142.8246,-11.9506 212.2259,-13.506 115.7834,1.598 227.6072,33.4408 341.7729,46.8682 88.9895,-3.2953 130.5933,-105.578 136.2132,-182.3547 24.6972,-202.2255 -27.8747,-417.9477 -159.5762,-575.482 -34.3962,-37.7736 -81.2489,-71.42 -134.6809,-69.6941 z m 1.2321,36.9164 c 81.2334,1.4307 164.3212,141.976 193.3175,201.0735 60.3711,146.3463 97.348,315.5502 45.3675,469.7561 -18.5911,81.2834 -117.0716,107.5907 -171.9448,43.8668 -39.7896,-39.2887 -91.1177,-93.9062 -93.3573,-148.0447 67.8387,-30.8412 152.2324,-67.9757 162.4195,-152.5309 9.743,-82.5689 -60.0835,-162.8512 -144.2062,-159.2129 -35.9849,-0.1837 -72.5491,5.2523 -108.2059,4.0123 3.81,-87.5142 -8.8504,-201.4404 82.0786,-250.3743 11.3661,-6.1168 22.9264,-8.7503 34.5311,-8.5459 z m 467.6236,49.8695 c -68.3043,20.856 -134.5169,52.4386 -193.8388,92.1251 23.0049,65.5416 111.2409,-33.2837 157.1909,-38.4802 16.967,-10.1092 77.8766,-32.3374 36.6479,-53.6449 z m -616.932,58.5892 c 1.0107,92.2374 -16.568,189.0096 9.9833,280.4509 26.6619,116.205 74.3967,226.3961 142.1527,324.5547 -40.0865,26.991 -104.9733,-21.4357 -127.6989,-68.3514 -71.0995,-146.7812 -121.3043,-312.6333 -95.0474,-475.0953 13.8279,-26.9774 44.9968,-47.0647 70.6103,-61.5589 z m -130.2895,87.1808 c 11.91,-2.6328 12.8259,13.9866 12.4951,21.0725 -3.6987,165.7939 34.9727,334.9986 123.2126,476.0115 -62.2705,16.4303 -135.579,8.0381 -201.7528,13.4428 -101.5552,0.7923 -202.6339,14.2876 -302.2974,30.6294 -38.4159,-50.4651 -43.385,-119.1938 -61.1009,-179.1164 -9.8851,-51.6092 -22.5013,-107.0121 -18.2607,-158.423 157.3387,-47.2144 306.5459,-120.1782 447.7041,-203.6168 z m 807.6114,48.748 c -57.2347,23.119 -171.5538,11.6159 -186.3038,73.1061 63.9237,12.5814 136.6013,-24.8236 199.8888,-43.235 22.9095,-8.3476 3.7529,-34.8684 -13.585,-29.8711 z m -558.9115,47.658 c 98.0938,-5.9597 159.059,105.8396 107.1951,167.2532 -51.864,61.4137 -128.5863,79.2326 -152.5151,6.8241 -23.9289,-72.4085 -52.7737,-168.1176 45.32,-174.0773 z m -747.7743,127.6988 c 24.8859,59.0896 20.425,136.9089 43.7563,200.6313 11.3701,54.6011 69.5692,118.271 -25.7167,143.8744 -95.2858,25.6034 -90.3483,-57.9861 -109.7066,-112.9449 -17.0455,-66.2489 -37.8927,-134.4514 -30.0765,-203.5062 37.3318,-14.2415 81.7293,-21.2159 121.7435,-28.0546 z m 1347.5355,27.1858 c -4.4631,-1.8471 -9.4507,-2.0391 -14.28,0.4581 -59.9924,21.0661 -174.5608,-24.9606 -198.8778,37.4535 65.6897,23.5508 149.6437,4.1707 220.5033,-3.9807 14.6959,-7.8985 6.0443,-28.3896 -7.3455,-33.9309 z m -1520.8072,73.8012 c 32.2531,59.0053 45.5919,144.7236 57.673,213.2052 -72.657,42.7834 -80.0284,-74.8556 -94.8263,-120.1007 -4.9692,-36.7029 -23.695,-97.9101 37.1533,-93.1045 z m 1311.4248,91.8724 c -16.4388,57.8072 111.4319,51.5841 155.39,72.5217 85.027,-5.2736 -12.3925,-50.8864 -49.6009,-52.7129 -37.2085,-1.8266 -69.9441,-17.3 -105.7891,-19.8088 z m -808.2117,135.4549 c 15.192,21.8234 41.713,75.2874 -13.2217,65.2711 -37.9409,-6.9178 -101.2577,51.9972 -38.8435,44.3408 62.4141,-7.6565 135.1484,-10.6451 104.936,48.1161 -46.9461,-12.0175 -103.9787,49.6481 -27.5964,43.6141 25.836,0.1463 58.3843,-17.9739 69.0938,19.2085 7.4975,26.0309 24.5286,48.3033 36.79,72.4585 45.1966,6.5436 94.2088,3.3201 135.5655,23.5368 -56.967,37.5457 -152.6765,90.3927 -223.4255,65.8398 -94.7961,-101.6995 -171.3392,-221.3299 -228.9702,-347.6176 37.0784,-25.9251 100.1526,-19.7427 146.544,-30.1871 z m 743.5408,15.5911 c -22.1845,47.1936 79.2185,93.5262 117.8261,98.4912 14.4747,-48.2862 -79.9958,-81.722 -117.8261,-98.4912 z"
         sodipodi:nodetypes="cccccccccccccccsczscccccccscccccccsscccccccsccccccccccccccsssscczcccscccsccccccsccszccsccccccccc" />
    </g>
    <text
       xml:space="preserve"
       style="font-style:normal;font-variant:normal;font-weight:bold;font-stretch:normal;font-size:128.692px;line-height:1.25;font-family:'Josefin Sans';-inkscape-font-specification:'Josefin Sans Bold';text-align:center;letter-spacing:0px;word-spacing:0px;text-anchor:middle;fill:#ffffff;stroke-width:3.125"
       x="1241.7661"
       y="281.70239"
       id="text1483"><tspan
         sodipodi:role="line"
         id="tspan1481"
         style="font-style:normal;font-variant:normal;font-weight:bold;font-stretch:normal;font-size:128.692px;font-family:'Josefin Sans';-inkscape-font-specification:'Josefin Sans Bold';text-align:center;text-anchor:middle;fill:#ffffff;stroke-width:3.125"
         x="1241.7661"
         y="281.70239">COMMENT ENVOYER UN MESSAGE</tspan><tspan
         sodipodi:role="line"
         style="font-style:normal;font-variant:normal;font-weight:bold;font-stretch:normal;font-size:128.692px;font-family:'Josefin Sans';-inkscape-font-specification:'Josefin Sans Bold';text-align:center;text-anchor:middle;fill:#ffffff;stroke-width:3.125"
         x="1241.7661"
         y="442.56738"
         id="tspan1551">VIA UN HAUT-PARLEUR ?</tspan></text>
    <text
       xml:space="preserve"
       style="font-style:italic;font-variant:normal;font-weight:normal;font-stretch:normal;font-size:99.9982px;line-height:1.25;font-family:'Josefin Sans';-inkscape-font-specification:'Josefin Sans weight=250 Italic';letter-spacing:0px;word-spacing:0px;fill:#ffffff;stroke-width:3.125"
       x="1196.5063"
       y="731.24854"
       id="text1637"><tspan
         sodipodi:role="line"
         id="tspan1635"
         style="font-style:italic;font-variant:normal;font-weight:normal;font-stretch:normal;font-size:99.9982px;font-family:'Josefin Sans';-inkscape-font-specification:'Josefin Sans weight=250 Italic';fill:#ffffff;stroke-width:3.125"
         x="1196.5063"
         y="731.24854">Présenté par Paul DUBOIS</tspan></text>
  </g>
</svg>
