<?xml version="1.0" encoding="UTF-8" standalone="no"?>
<!-- Created with Inkscape (http://www.inkscape.org/) -->

<svg
   width="100mm"
   height="100mm"
   viewBox="0 0 100 100"
   version="1.1"
   id="svg5"
   xml:space="preserve"
   inkscape:export-filename="elliptic_curve.png"
   inkscape:export-xdpi="254"
   inkscape:export-ydpi="254"
   inkscape:version="1.2.1 (9c6d41e410, 2022-07-14)"
   sodipodi:docname="elliptic_curve.svg"
   xmlns:inkscape="http://www.inkscape.org/namespaces/inkscape"
   xmlns:sodipodi="http://sodipodi.sourceforge.net/DTD/sodipodi-0.dtd"
   xmlns="http://www.w3.org/2000/svg"
   xmlns:svg="http://www.w3.org/2000/svg"><sodipodi:namedview
     id="namedview7"
     pagecolor="#ffffff"
     bordercolor="#666666"
     borderopacity="1.0"
     inkscape:showpageshadow="2"
     inkscape:pageopacity="0.0"
     inkscape:pagecheckerboard="0"
     inkscape:deskcolor="#d1d1d1"
     inkscape:document-units="mm"
     showgrid="false"
     inkscape:zoom="1"
     inkscape:cx="191"
     inkscape:cy="168.5"
     inkscape:window-width="1920"
     inkscape:window-height="992"
     inkscape:window-x="-8"
     inkscape:window-y="-8"
     inkscape:window-maximized="1"
     inkscape:current-layer="layer1" /><defs
     id="defs2"><marker
       style="overflow:visible"
       id="marker1277"
       refX="0"
       refY="0"
       orient="auto-start-reverse"
       inkscape:stockid="Arrow5"
       markerWidth="3.8870001"
       markerHeight="4.3637118"
       viewBox="0 0 5.8874262 6.6094758"
       inkscape:isstock="true"
       inkscape:collect="always"
       preserveAspectRatio="xMidYMid"><path
         transform="scale(0.5)"
         style="fill:context-stroke;fill-rule:evenodd;stroke:context-stroke;stroke-width:1pt"
         d="m 6,0 c -3,1 -7,3 -9,5 0,0 0,-4 2,-5 -2,-1 -2,-5 -2,-5 2,2 6,4 9,5 z"
         id="path1275" /></marker><marker
       style="overflow:visible"
       id="Arrow5"
       refX="0"
       refY="0"
       orient="auto-start-reverse"
       inkscape:stockid="Arrow5"
       markerWidth="3.8870001"
       markerHeight="4.3637118"
       viewBox="0 0 5.8874262 6.6094758"
       inkscape:isstock="true"
       inkscape:collect="always"
       preserveAspectRatio="xMidYMid"><path
         transform="scale(0.5)"
         style="fill:context-stroke;fill-rule:evenodd;stroke:context-stroke;stroke-width:1pt"
         d="m 6,0 c -3,1 -7,3 -9,5 0,0 0,-4 2,-5 -2,-1 -2,-5 -2,-5 2,2 6,4 9,5 z"
         id="path8893" /></marker><marker
       style="overflow:visible"
       id="Arrow5-1"
       refX="0"
       refY="0"
       orient="auto-start-reverse"
       inkscape:stockid="Arrow5"
       markerWidth="3.8870001"
       markerHeight="4.3637118"
       viewBox="0 0 5.8874262 6.6094758"
       inkscape:isstock="true"
       inkscape:collect="always"
       preserveAspectRatio="xMidYMid"><path
         transform="scale(0.5)"
         style="fill:context-stroke;fill-rule:evenodd;stroke:context-stroke;stroke-width:1pt"
         d="m 6,0 c -3,1 -7,3 -9,5 0,0 0,-4 2,-5 -2,-1 -2,-5 -2,-5 2,2 6,4 9,5 z"
         id="path8893-0" /></marker><marker
       style="overflow:visible"
       id="marker1277-9"
       refX="0"
       refY="0"
       orient="auto-start-reverse"
       inkscape:stockid="Arrow5"
       markerWidth="3.8870001"
       markerHeight="4.3637118"
       viewBox="0 0 5.8874262 6.6094758"
       inkscape:isstock="true"
       inkscape:collect="always"
       preserveAspectRatio="xMidYMid"><path
         transform="scale(0.5)"
         style="fill:context-stroke;fill-rule:evenodd;stroke:context-stroke;stroke-width:1pt"
         d="m 6,0 c -3,1 -7,3 -9,5 0,0 0,-4 2,-5 -2,-1 -2,-5 -2,-5 2,2 6,4 9,5 z"
         id="path1275-2" /></marker></defs><g
     inkscape:label="Layer 1"
     inkscape:groupmode="layer"
     id="layer1"><g
       id="g1614"
       transform="matrix(0.8302673,0,0,0.8302673,-25.052526,-27.214859)"
       style="stroke-width:1.20443"><path
         style="fill:none;stroke:#000000;stroke-width:1.64405;stroke-linecap:butt;stroke-linejoin:miter;stroke-dasharray:none;stroke-opacity:1;marker-start:url(#Arrow5);marker-end:url(#marker1277)"
         d="M 90.529167,146 V 40"
         id="path387"
         sodipodi:nodetypes="cc" /><path
         style="fill:none;stroke:#000000;stroke-width:1.64405;stroke-linecap:butt;stroke-linejoin:miter;stroke-dasharray:none;stroke-opacity:1;marker-start:url(#Arrow5-1);marker-end:url(#marker1277-9)"
         d="M 143.39562,93.184362 H 37.395617"
         id="path387-7"
         sodipodi:nodetypes="cc" /></g><path
       id="path380"
       style="fill:#bf2c2e;stroke-width:0.999999"
       d="m 82.178704,11.35399 c -0.182045,0.05672 -0.596348,0.619109 -1.133556,1.537725 -0.0976,0.186461 -0.194673,0.369905 -0.29648,0.572785 -4.011246,7.993349 -9.040598,15.154192 -13.176201,18.760321 -4.684269,4.084538 -8.921222,3.988305 -14.738813,-0.33466 -3.9572,-2.940531 -6.029781,-3.905849 -9.326744,-4.344587 -3.346264,-0.445304 -7.832052,0.331909 -10.951994,1.8977 -6.339036,3.18134 -9.817521,9.748052 -10.158677,19.17779 -0.01763,0.487152 -0.02448,0.965858 -0.02617,1.440758 0.0017,0.47482 0.0086,0.953689 0.02617,1.440758 0.341154,9.429735 3.819646,15.996021 10.158677,19.177364 3.119944,1.565785 7.605729,2.34343 10.951994,1.898124 3.296963,-0.438738 5.369544,-1.40448 9.326744,-4.345013 5.817591,-4.322969 10.054544,-4.419197 14.738813,-0.334664 4.135603,3.606133 9.164955,10.766973 13.176201,18.760321 0.102629,0.204512 0.200302,0.389711 0.298622,0.577509 0.53583,0.915943 0.949901,1.474173 1.131414,1.533006 0.181513,0.05887 0.227659,-0.04733 0.27373,-0.138588 0.151068,-0.299395 0.06484,-0.405877 -0.167755,-0.991971 -1.028477,-2.282504 -4.276508,-7.949859 -6.62457,-11.423946 -2.557265,-3.783611 -4.390155,-6.03415 -6.632723,-8.144707 -3.734576,-3.514729 -6.520114,-4.529963 -10.262511,-3.739623 -2.17726,0.459802 -3.933529,1.35033 -6.648168,3.370636 -4.848748,3.608566 -7.957556,4.581382 -12.819231,4.012068 -8.171558,-0.956892 -13.278795,-5.753678 -15.308165,-14.377547 -0.126288,-0.536664 -0.216503,-1.002566 -0.284891,-1.5167 -0.17653,-1.142584 -0.459626,-2.416661 -0.456571,-5.718413 v -0.07723 c -0.0031,-3.302629 0.280314,-4.576876 0.457,-5.719699 0.06837,-0.513684 0.158266,-0.979567 0.284462,-1.515842 2.029368,-8.62387 7.136612,-13.420648 15.308165,-14.377551 4.861679,-0.569313 7.970483,0.403942 12.819231,4.0125 2.714639,2.020302 4.470908,2.910405 6.648168,3.370207 3.742397,0.790339 6.527935,-0.224466 10.262511,-3.739192 2.242568,-2.110557 4.075458,-4.361096 6.632723,-8.144704 2.348062,-3.474091 5.596093,-9.141874 6.62457,-11.424382 0.232616,-0.586094 0.318823,-0.692572 0.167755,-0.991969 -0.04608,-0.09131 -0.09169,-0.195308 -0.27373,-0.138583 z"
       sodipodi:nodetypes="zccssssscssssssczacsssssscccccssssssaz" /></g></svg>
